<svg width="25" height="25" viewBox="0 0 25 25" fill="none" xmlns="http://www.w3.org/2000/svg">
<path d="M9.08626 12.1679C9.08626 12.3979 8.90229 12.5818 8.67232 12.5818H7.11876C6.8888 12.5818 6.70482 12.3979 6.70482 12.1679V10.6143C6.70482 10.3844 6.8888 10.2004 7.11876 10.2004H8.67232C8.90229 10.2004 9.08626 10.3844 9.08626 10.6143V12.1679ZM12.3314 10.6194C12.3314 10.3895 12.1474 10.2055 11.9174 10.2055H10.3639C10.1339 10.2055 9.94992 10.3895 9.94992 10.6194V12.173C9.94992 12.403 10.1339 12.5869 10.3639 12.5869H11.9174C12.1474 12.5869 12.3314 12.403 12.3314 12.173V10.6194ZM15.5765 10.6194C15.5765 10.3895 15.3925 10.2055 15.1625 10.2055H13.609C13.379 10.2055 13.195 10.3895 13.195 10.6194V12.173C13.195 12.403 13.379 12.5869 13.609 12.5869H15.1625C15.3925 12.5869 15.5765 12.403 15.5765 12.173V10.6194ZM9.08626 13.7777C9.08626 13.5477 8.90229 13.3637 8.67232 13.3637H7.11876C6.8888 13.3637 6.70482 13.5477 6.70482 13.7777V15.3312C6.70482 15.5612 6.8888 15.7452 7.11876 15.7452H8.67232C8.90229 15.7452 9.08626 15.5612 9.08626 15.3312V13.7777ZM12.3314 13.7777C12.3314 13.5477 12.1474 13.3637 11.9174 13.3637H10.3639C10.1339 13.3637 9.94992 13.5477 9.94992 13.7777V15.3312C9.94992 15.5612 10.1339 15.7452 10.3639 15.7452H11.9174C12.1474 15.7452 12.3314 15.5612 12.3314 15.3312V13.7777ZM15.1625 13.3637H13.609C13.379 13.3637 13.195 13.5477 13.195 13.7777V15.3312C13.195 15.5612 13.379 15.7452 13.609 15.7452H15.1625C15.3925 15.7452 15.5765 15.5612 15.5765 15.3312V13.7777C15.5765 13.5477 15.3925 13.3637 15.1625 13.3637ZM5.42212 16.5219H3.87367C3.6437 16.5219 3.45973 16.7059 3.45973 16.9359V18.4894C3.45973 18.7194 3.6437 18.9034 3.87367 18.9034H5.42723C5.6572 18.9034 5.84117 18.7194 5.84117 18.4894V16.9359C5.84117 16.7059 5.65208 16.5219 5.42212 16.5219ZM5.84117 13.7777C5.84117 13.5477 5.6572 13.3637 5.42723 13.3637H3.87367C3.6437 13.3637 3.45973 13.5477 3.45973 13.7777V15.3312C3.45973 15.5612 3.6437 15.7452 3.87367 15.7452H5.42723C5.6572 15.7452 5.84117 15.5612 5.84117 15.3312V13.7777ZM11.9174 16.5219H10.3639C10.1339 16.5219 9.94992 16.7059 9.94992 16.9359V18.4894C9.94992 18.7194 10.1339 18.9034 10.3639 18.9034H11.9174C12.1474 18.9034 12.3314 18.7194 12.3314 18.4894V16.9359C12.3314 16.7059 12.1474 16.5219 11.9174 16.5219ZM8.67232 16.5219H7.11876C6.8888 16.5219 6.70482 16.7059 6.70482 16.9359V18.4894C6.70482 18.7194 6.8888 18.9034 7.11876 18.9034H8.67232C8.90229 18.9034 9.08626 18.7194 9.08626 18.4894V16.9359C9.08626 16.7059 8.90229 16.5219 8.67232 16.5219ZM18.4076 12.5869C18.6376 12.5869 18.8215 12.403 18.8215 12.173V10.6194C18.8215 10.3895 18.6376 10.2055 18.4076 10.2055H16.854C16.6241 10.2055 16.4401 10.3895 16.4401 10.6194V12.173C16.4401 12.403 16.6241 12.5869 16.854 12.5869H18.4076ZM2.43765 22.2762H14.2273C14.0382 21.6834 13.9309 21.0497 13.9258 20.3956H2.43765C2.13103 20.3956 1.88573 20.1452 1.88573 19.8437V8.73882H20.37V13.9054C21.0241 13.9105 21.6578 14.0076 22.2506 14.1967V4.84982C22.2506 3.50579 21.157 2.41217 19.813 2.41217H17.084V0.909715C17.084 0.419118 16.6854 0.0205078 16.1948 0.0205078H14.8099C14.3193 0.0205078 13.9207 0.419118 13.9207 0.909715V2.41728H8.32993V0.909715C8.32993 0.419118 7.93132 0.0205078 7.44072 0.0205078H6.05581C5.56521 0.0205078 5.1666 0.419118 5.1666 0.909715V2.41728H2.43765C1.09362 2.41728 0 3.5109 0 4.85493V19.8437C0 21.1826 1.09362 22.2762 2.43765 22.2762ZM25 20.3241C25 22.8946 22.915 24.9796 20.3444 24.9796C17.7739 24.9796 15.6889 22.8946 15.6889 20.3241C15.6889 17.7535 17.7739 15.6685 20.3444 15.6685C22.915 15.6685 25 17.7535 25 20.3241ZM22.6952 19.118C22.6952 18.9698 22.639 18.8267 22.5317 18.7245C22.3119 18.5048 21.9593 18.5048 21.7396 18.7245L19.7159 20.7482L18.9391 19.9715C18.7193 19.7517 18.3667 19.7517 18.147 19.9715C18.0397 20.0788 17.9834 20.2168 17.9834 20.365C17.9834 20.5132 18.0397 20.6562 18.147 20.7585L19.3173 21.9287C19.537 22.1485 19.8896 22.1485 20.1094 21.9287L22.5266 19.5115C22.639 19.4093 22.6952 19.2662 22.6952 19.118Z" fill="#812590"/>
</svg>
