<svg width="474" height="501" viewBox="0 0 474 501" fill="none" xmlns="http://www.w3.org/2000/svg">
<g opacity="0.5">
<path d="M2.82429 340.685C10.3232 308.679 34.8445 283.553 66.0614 275.869C87.5233 270.587 108.114 273.422 125.518 281.982C131.291 284.821 138.15 281.607 139.75 275.25C155.135 214.106 209.282 168.935 273.721 168.935C350.133 168.935 412.076 232.447 412.076 310.793C412.076 312.873 412.035 315.713 411.999 318.44C412.27 324.298 414.765 326.786 418.489 327.41C448.427 330.605 471.954 355.91 473.259 387.122C474.759 422.959 446.311 452.651 411.326 452.651H87.726C32.3302 452.651 -11.0434 399.874 2.82429 340.685Z" fill="#5C5CD0"/>
<path d="M27.8878 352.68C34.5832 324.103 56.4775 301.669 84.3501 294.808C103.513 290.091 121.898 292.623 137.438 300.266C142.592 302.801 148.716 299.931 150.144 294.256C163.881 239.662 212.227 199.33 269.763 199.33C337.988 199.33 393.295 256.037 393.295 325.99C393.295 327.847 393.259 330.383 393.227 332.818C393.469 338.049 395.697 340.27 399.022 340.828C425.752 343.68 446.759 366.274 447.925 394.142C449.263 426.14 423.863 452.65 392.627 452.65H103.694C54.2326 452.65 15.5059 405.528 27.8878 352.68Z" fill="#7474FE"/>
<path d="M65.4594 483.044C65.4594 485.666 67.6073 487.812 70.2324 487.812H328.343C330.968 487.812 333.116 485.666 333.116 483.044L335.264 334.715C335.264 332.092 332.174 326.972 326.511 327.357L74.2568 320.83C70.963 320.745 67.778 322.012 65.4454 324.337C63.1131 326.662 61.8366 329.841 61.9145 333.132L65.4594 483.044Z" fill="#000583"/>
<path d="M70.1714 478.469C70.1714 480.952 72.2035 482.985 74.687 482.985H322.118C324.602 482.985 326.634 480.952 326.634 478.469L328.66 343.815C328.422 335.712 321.318 332.799 317.011 332.971L75.2486 326.485C72.9345 326.423 70.6972 327.315 69.0582 328.949C67.4192 330.584 66.5179 332.821 66.5759 335.136L70.1714 478.469Z" fill="#839CF4"/>
<path d="M323.96 414.498H323.953C323.584 414.493 323.292 414.192 323.298 413.826L323.458 402.906C323.463 402.544 323.759 402.254 324.119 402.254H324.126C324.495 402.26 324.787 402.56 324.781 402.926L324.621 413.846C324.616 414.208 324.321 414.498 323.96 414.498Z" fill="white"/>
<path d="M324.353 387.738H324.343C323.977 387.732 323.685 387.431 323.691 387.066L324.305 345.241C324.293 342.757 323.539 340.773 322.063 339.359C319.308 336.719 314.934 336.854 314.749 336.863L237.477 334.791C237.112 334.781 236.823 334.477 236.833 334.112C236.843 333.746 237.124 333.435 237.513 333.468L314.739 335.54C315.22 335.512 319.877 335.431 322.979 338.403C324.724 340.075 325.615 342.378 325.628 345.248L325.014 387.086C325.008 387.448 324.713 387.738 324.353 387.738Z" fill="white"/>
<path d="M45.4809 500.125H347.86C348.389 500.125 348.821 499.692 348.821 499.164V488.053C348.821 487.525 348.389 487.092 347.86 487.092H45.4809C44.9523 487.092 44.5195 487.525 44.5195 488.053V499.164C44.5195 499.692 44.9523 500.125 45.4809 500.125Z" fill="#000583"/>
<path d="M177.518 476.416H82.2508C78.7382 476.416 75.8906 473.569 75.8906 470.056V345.703C75.8906 342.095 78.8885 339.21 82.4939 339.348L177.761 342.993C181.176 343.124 183.878 345.931 183.878 349.349V470.056C183.878 473.569 181.03 476.416 177.518 476.416Z" fill="#D1D1D1"/>
<path d="M158.569 396.516H95.4654C94.9646 396.516 94.5586 396.11 94.5586 395.609V389.036C94.5586 388.535 94.9646 388.129 95.4654 388.129H158.569C159.07 388.129 159.476 388.535 159.476 389.036V395.609C159.476 396.11 159.07 396.516 158.569 396.516Z" fill="white"/>
<path d="M158.695 409.908H95.5914C95.0906 409.908 94.6846 409.502 94.6846 409.001V402.428C94.6846 401.927 95.0906 401.521 95.5914 401.521H158.695C159.196 401.521 159.602 401.927 159.602 402.428V409.001C159.602 409.502 159.196 409.908 158.695 409.908Z" fill="white"/>
<path d="M159.076 423.581H95.9724C95.4716 423.581 95.0654 423.175 95.0654 422.674V416.102C95.0654 415.601 95.4716 415.195 95.9724 415.195H159.076C159.577 415.195 159.983 415.601 159.983 416.102V422.674C159.983 423.175 159.577 423.581 159.076 423.581Z" fill="white"/>
<path d="M159.204 436.974H96.1002C95.5994 436.974 95.1934 436.568 95.1934 436.067V429.494C95.1934 428.993 95.5994 428.587 96.1002 428.587H159.204C159.705 428.587 160.111 428.993 160.111 429.494V436.067C160.111 436.568 159.705 436.974 159.204 436.974Z" fill="white"/>
<path d="M210.57 396.506H204.596C204.564 396.506 204.537 396.1 204.537 395.599V389.026C204.537 388.525 204.564 388.119 204.596 388.119H210.57C210.603 388.119 210.63 388.525 210.63 389.026V395.599C210.63 396.1 210.603 396.506 210.57 396.506Z" fill="white"/>
<path d="M249.524 409.908H205.265C205.023 409.908 204.826 409.502 204.826 409.001V402.428C204.826 401.927 205.023 401.521 205.265 401.521H249.524C249.766 401.521 249.963 401.927 249.963 402.428V409.001C249.963 409.502 249.766 409.908 249.524 409.908Z" fill="white"/>
<path d="M254.681 423.581H205.657C205.198 423.581 204.826 423.175 204.826 422.674V416.102C204.826 415.601 205.198 415.195 205.657 415.195H254.681C255.14 415.195 255.512 415.601 255.512 416.102V422.674C255.512 423.175 255.14 423.581 254.681 423.581Z" fill="white"/>
<path d="M254.082 356.863H252.66C251.954 356.863 251.382 356.291 251.382 355.585V350.725C251.382 348.986 249.972 347.576 248.232 347.576H239.423C237.684 347.576 236.274 348.986 236.274 350.725V355.585C236.274 356.291 235.702 356.863 234.996 356.863H233.574C232.868 356.863 232.296 356.291 232.296 355.585V350.725C232.296 346.789 235.487 343.598 239.423 343.598H248.232C252.169 343.598 255.36 346.789 255.36 350.725V355.585C255.36 356.291 254.788 356.863 254.082 356.863Z" fill="white"/>
<path d="M255.844 358.01H231.812C230.339 358.01 229.146 359.204 229.146 360.676V379.12C229.146 380.592 230.339 381.786 231.812 381.786H255.844C257.316 381.786 258.51 380.592 258.51 379.12V360.676C258.51 359.204 257.316 358.01 255.844 358.01ZM247.266 375.836C247.416 376.457 246.945 377.054 246.306 377.054H241.35C240.711 377.054 240.24 376.457 240.389 375.835L241.546 371.022C240.181 370.206 239.288 368.681 239.38 366.955C239.498 364.719 241.309 362.889 243.543 362.751C246.132 362.59 248.282 364.642 248.282 367.196C248.282 368.822 247.411 370.244 246.11 371.022L247.266 375.836Z" fill="white"/>
<path d="M180.773 101.811C180.856 101.767 180.952 101.742 181.052 101.744C181.369 101.75 181.62 102.01 181.614 102.326C181.601 103.085 181.599 103.842 181.609 104.598C181.613 104.914 181.361 105.172 181.044 105.177C180.728 105.181 180.468 104.928 180.464 104.612C180.454 103.844 180.456 103.076 180.47 102.306C180.474 102.091 180.596 101.905 180.773 101.811Z" fill="black"/>
<path d="M221.358 35.5494C221.657 35.3904 221.956 35.2338 222.257 35.0789C222.537 34.9345 222.882 35.0446 223.028 35.3257C223.171 35.6041 223.064 35.9461 222.788 36.093L222.781 36.0967C221.464 36.7748 220.156 37.4995 218.883 38.2533C218.632 38.4096 218.259 38.3246 218.099 38.052C217.937 37.78 218.028 37.4292 218.3 37.2679C219.302 36.6751 220.33 36.0966 221.358 35.5494ZM228.881 32.0502C228.899 32.0404 228.918 32.0316 228.937 32.0239C230.333 31.4642 231.761 30.9391 233.181 30.4636C233.481 30.3635 233.806 30.5251 233.906 30.8243C234.007 31.1242 233.844 31.451 233.545 31.5491C232.145 32.0176 230.739 32.5348 229.364 33.0864C229.07 33.2041 228.737 33.0619 228.619 32.7685C228.509 32.4945 228.626 32.1857 228.881 32.0502ZM212.23 41.2635C212.478 41.1313 212.792 41.1989 212.961 41.432C213.148 41.6876 213.091 42.0457 212.836 42.2318C211.639 43.1023 210.454 44.0198 209.312 44.9583C209.07 45.1575 208.707 45.1234 208.506 44.8795C208.306 44.6352 208.341 44.2746 208.585 44.0737C209.744 43.1209 210.948 42.1902 212.162 41.3062C212.184 41.2899 212.207 41.2758 212.23 41.2635ZM240.109 28.5156C240.153 28.4926 240.2 28.4745 240.249 28.4633C241.712 28.1235 243.203 27.8232 244.682 27.5696C244.993 27.5159 245.289 27.7255 245.342 28.0373C245.396 28.3483 245.188 28.6427 244.875 28.6979C243.418 28.9478 241.949 29.2437 240.509 29.5781C240.2 29.6498 239.893 29.458 239.822 29.1503C239.761 28.8922 239.887 28.6343 240.109 28.5156ZM203.272 48.9048C203.489 48.7892 203.765 48.823 203.947 49.006C204.17 49.2297 204.169 49.5925 203.945 49.8156C202.896 50.8616 201.865 51.9503 200.883 53.0517C200.673 53.2869 200.31 53.3085 200.074 53.0979C199.839 52.8871 199.818 52.5258 200.028 52.2895C201.026 51.1715 202.072 50.066 203.137 49.0046C203.179 48.9638 203.224 48.9305 203.272 48.9048ZM251.748 26.7415C251.816 26.7053 251.892 26.6825 251.974 26.6763C253.474 26.5649 254.993 26.4975 256.49 26.4749C256.806 26.47 257.067 26.723 257.071 27.0391C257.075 27.3543 256.824 27.6146 256.507 27.6198C255.033 27.6419 253.536 27.7083 252.059 27.8179C251.743 27.8416 251.469 27.6047 251.445 27.2897C251.428 27.0563 251.553 26.845 251.748 26.7415ZM195.598 57.8338C195.786 57.7337 196.023 57.7426 196.206 57.8771C196.461 58.0639 196.516 58.4223 196.329 58.6777C195.455 59.8695 194.605 61.1044 193.802 62.3483C193.629 62.6141 193.276 62.6896 193.01 62.5183C192.745 62.3469 192.669 61.9923 192.84 61.7268C193.656 60.4643 194.519 59.2103 195.406 58C195.459 57.9284 195.525 57.873 195.598 57.8338ZM263.516 26.782C263.609 26.7323 263.718 26.7075 263.831 26.7168C265.327 26.8382 266.839 27.006 268.324 27.2149C268.637 27.259 268.855 27.5483 268.811 27.8618C268.766 28.1751 268.477 28.3925 268.164 28.3488C266.702 28.1424 265.213 27.9778 263.738 27.858C263.423 27.8327 263.188 27.5559 263.214 27.2408C263.23 27.0388 263.35 26.8705 263.516 26.782ZM189.394 67.841C189.554 67.7556 189.752 67.7476 189.926 67.8374C190.207 67.9831 190.317 68.3284 190.172 68.609C189.491 69.9231 188.841 71.2746 188.239 72.6263C188.11 72.9146 187.772 73.0448 187.483 72.916C187.194 72.7872 187.064 72.4487 187.193 72.1598C187.805 70.7886 188.464 69.4168 189.154 68.0829C189.21 67.9759 189.295 67.8935 189.394 67.841ZM275.136 28.6364C275.255 28.5729 275.397 28.5511 275.538 28.5847C276.993 28.9336 278.462 29.3308 279.903 29.7664C280.205 29.858 280.376 30.1771 280.285 30.4798C280.193 30.782 279.874 30.954 279.572 30.8623C278.152 30.4339 276.705 30.0423 275.271 29.6986C274.964 29.6247 274.774 29.3159 274.848 29.0081C274.888 28.8422 274.996 28.7108 275.136 28.6364ZM184.792 78.6849C184.926 78.6135 185.089 78.5956 185.244 78.6476C185.544 78.7491 185.705 79.0738 185.604 79.3733C185.131 80.7766 184.693 82.21 184.303 83.6343C184.218 83.9388 183.903 84.1177 183.599 84.0353C183.294 83.9513 183.114 83.6365 183.198 83.3317C183.594 81.8864 184.039 80.4312 184.519 79.0072C184.568 78.8634 184.668 78.7511 184.792 78.6849ZM286.343 32.2442C286.488 32.167 286.665 32.1525 286.829 32.2191C288.217 32.7848 289.609 33.4 290.965 34.047C291.251 34.1832 291.371 34.5249 291.235 34.8105C291.098 35.0967 290.757 35.2161 290.472 35.0807C289.135 34.4428 287.764 33.8366 286.397 33.2791C286.104 33.16 285.963 32.8258 286.083 32.5329C286.135 32.4042 286.229 32.3049 286.343 32.2442ZM181.89 90.0929C181.999 90.035 182.126 90.0115 182.257 90.0344C182.568 90.0885 182.777 90.3851 182.723 90.6965C182.468 92.1587 182.255 93.6422 182.088 95.1059C182.051 95.4204 181.768 95.6464 181.455 95.6104C181.141 95.5744 180.915 95.2905 180.95 94.977C181.12 93.4903 181.336 91.9843 181.595 90.5003C181.626 90.3195 181.74 90.173 181.89 90.0929ZM296.874 37.5094C297.046 37.418 297.26 37.4162 297.438 37.5237C298.73 38.2994 300.011 39.1209 301.246 39.9653C301.506 40.1439 301.573 40.5001 301.395 40.7613C301.216 41.0213 300.86 41.089 300.599 40.9103C299.383 40.0786 298.122 39.2698 296.849 38.5052C296.578 38.3423 296.49 37.9907 296.653 37.7197C296.708 37.6274 296.786 37.5565 296.874 37.5094ZM306.469 44.3327C306.668 44.2265 306.92 44.2447 307.105 44.3985C308.26 45.3635 309.399 46.373 310.489 47.3986C310.719 47.615 310.73 47.9779 310.513 48.208C310.299 48.4368 309.935 48.4486 309.704 48.232C308.631 47.2222 307.51 46.228 306.371 45.277C306.128 45.0745 306.096 44.7134 306.299 44.4708C306.347 44.4125 306.405 44.3665 306.469 44.3327Z" fill="#D9D9D9"/>
<path d="M314.916 52.5775C315.146 52.4553 315.437 52.5018 315.615 52.7056C316.122 53.2844 316.621 53.8695 317.11 54.4616C317.311 54.7054 317.276 55.0663 317.032 55.2672C316.789 55.4678 316.428 55.435 316.227 55.19C315.745 54.6066 315.254 54.0304 314.754 53.4604C314.546 53.2224 314.57 52.8607 314.808 52.6525C314.842 52.6228 314.878 52.5979 314.916 52.5775Z" fill="#D9D9D9"/>
<path d="M333.786 108.667C333.878 108.618 333.984 108.594 334.097 108.602C334.411 108.625 334.649 108.899 334.625 109.214C334.569 109.979 334.502 110.745 334.424 111.511C334.391 111.825 334.11 112.055 333.796 112.022C333.481 111.989 333.253 111.708 333.285 111.394C333.363 110.638 333.429 109.885 333.484 109.131C333.498 108.927 333.618 108.756 333.786 108.667Z" fill="#D9D9D9"/>
<path d="M202.651 156.761C202.87 156.644 203.148 156.679 203.33 156.866C204.417 157.977 205.553 159.069 206.707 160.111C206.942 160.323 206.96 160.684 206.748 160.919C206.538 161.154 206.174 161.172 205.94 160.96C204.768 159.903 203.615 158.795 202.511 157.666C202.29 157.44 202.294 157.078 202.52 156.857C202.56 156.817 202.604 156.786 202.651 156.761ZM211.997 164.875C212.185 164.774 212.422 164.784 212.605 164.918C213.861 165.84 215.16 166.734 216.465 167.572C216.731 167.743 216.808 168.097 216.637 168.364C216.465 168.629 216.111 168.706 215.845 168.536C214.521 167.684 213.202 166.778 211.928 165.841C211.673 165.654 211.618 165.296 211.805 165.041C211.857 164.969 211.923 164.914 211.997 164.875ZM222.536 171.366C222.695 171.282 222.892 171.273 223.065 171.361C224.449 172.065 225.875 172.737 227.303 173.357C227.593 173.483 227.726 173.82 227.6 174.109C227.474 174.401 227.137 174.533 226.847 174.407C225.398 173.777 223.95 173.097 222.545 172.381C222.264 172.238 222.152 171.894 222.295 171.612C222.35 171.503 222.436 171.42 222.536 171.366ZM332.414 118.524C332.527 118.463 332.662 118.44 332.798 118.469C333.107 118.532 333.306 118.835 333.243 119.145C332.924 120.685 332.553 122.241 332.14 123.769C332.057 124.074 331.743 124.254 331.437 124.172C331.132 124.089 330.952 123.775 331.034 123.47C331.443 121.963 331.808 120.431 332.121 118.914C332.157 118.74 332.268 118.601 332.414 118.524ZM233.982 176.078C234.113 176.008 234.272 175.989 234.426 176.038C235.9 176.513 237.414 176.949 238.924 177.335C239.231 177.413 239.416 177.725 239.338 178.031C239.26 178.338 238.947 178.523 238.641 178.444C237.108 178.052 235.572 177.61 234.075 177.128C233.774 177.031 233.609 176.709 233.706 176.408C233.753 176.26 233.855 176.145 233.982 176.078ZM328.948 130.406C329.089 130.331 329.26 130.315 329.421 130.376C329.716 130.488 329.865 130.819 329.752 131.114C329.19 132.593 328.576 134.07 327.927 135.507C327.795 135.795 327.457 135.923 327.169 135.793C326.881 135.663 326.753 135.324 326.883 135.035C327.523 133.62 328.128 132.164 328.682 130.708C328.733 130.573 328.83 130.468 328.948 130.406ZM246.026 178.906C246.13 178.85 246.253 178.827 246.38 178.845C247.917 179.078 249.481 179.264 251.028 179.4C251.343 179.428 251.576 179.706 251.548 180.021C251.52 180.335 251.244 180.568 250.927 180.541C249.357 180.402 247.769 180.213 246.209 179.978C245.896 179.931 245.681 179.639 245.728 179.326C245.757 179.14 245.871 178.988 246.026 178.906ZM323.632 141.588C323.801 141.498 324.011 141.494 324.189 141.597C324.462 141.756 324.555 142.106 324.397 142.379C323.607 143.744 322.763 145.104 321.889 146.42C321.713 146.685 321.358 146.755 321.095 146.581C320.832 146.406 320.76 146.05 320.935 145.787C321.797 144.49 322.628 143.151 323.407 141.806C323.462 141.71 323.541 141.636 323.632 141.588ZM258.37 179.751C258.447 179.709 258.536 179.685 258.63 179.684C260.183 179.663 261.756 179.594 263.307 179.477C263.623 179.453 263.897 179.689 263.921 180.005C263.946 180.32 263.71 180.596 263.393 180.619C261.819 180.737 260.222 180.808 258.646 180.828C258.329 180.833 258.07 180.58 258.066 180.264C258.063 180.042 258.186 179.848 258.37 179.751ZM316.582 151.763C316.78 151.657 317.03 151.674 317.214 151.826C317.459 152.026 317.494 152.387 317.293 152.632C316.294 153.848 315.241 155.053 314.162 156.211C313.945 156.443 313.585 156.456 313.353 156.24C313.122 156.025 313.109 155.662 313.324 155.431C314.386 154.29 315.424 153.104 316.408 151.904C316.458 151.845 316.517 151.797 316.582 151.763ZM270.688 178.585C270.739 178.558 270.796 178.537 270.856 178.526C272.386 178.255 273.928 177.932 275.44 177.566C275.747 177.492 276.057 177.681 276.131 177.988C276.205 178.295 276.012 178.607 275.709 178.679C274.175 179.05 272.609 179.378 271.056 179.654C270.745 179.709 270.448 179.501 270.393 179.19C270.348 178.94 270.474 178.698 270.688 178.585ZM307.976 160.658C308.205 160.536 308.496 160.582 308.675 160.785C308.883 161.023 308.859 161.385 308.622 161.594C307.434 162.637 306.2 163.655 304.954 164.619C304.696 164.814 304.344 164.767 304.151 164.517C303.957 164.267 304.003 163.908 304.253 163.715C305.48 162.765 306.696 161.762 307.866 160.733C307.901 160.704 307.937 160.678 307.976 160.658ZM282.657 175.447C282.682 175.434 282.709 175.422 282.737 175.412C284.205 174.897 285.675 174.331 287.108 173.727C287.399 173.605 287.735 173.742 287.858 174.033C287.98 174.324 287.85 174.658 287.552 174.783C286.098 175.395 284.605 175.97 283.116 176.492C282.817 176.596 282.491 176.44 282.386 176.141C282.291 175.871 282.412 175.578 282.657 175.447ZM298.047 168.048C298.31 167.908 298.64 167.994 298.8 168.25C298.968 168.518 298.887 168.871 298.619 169.039C297.283 169.875 295.902 170.682 294.513 171.436L294.509 171.438C294.232 171.586 293.887 171.483 293.737 171.207C293.586 170.929 293.689 170.581 293.967 170.43C295.335 169.686 296.696 168.892 298.011 168.069C298.023 168.061 298.035 168.055 298.047 168.048Z" fill="#D9D9D9"/>
<path d="M196.152 149.181C196.397 149.05 196.707 149.114 196.878 149.342C197.332 149.947 197.796 150.546 198.269 151.138C198.466 151.386 198.426 151.746 198.179 151.943C197.931 152.136 197.571 152.1 197.374 151.853C196.894 151.252 196.424 150.644 195.963 150.03C195.773 149.777 195.824 149.418 196.077 149.228C196.101 149.21 196.126 149.194 196.152 149.181Z" fill="#D9D9D9"/>
<path d="M206.533 132.802C206.69 133.161 207.057 133.381 207.448 133.35L218.602 132.462C221.728 136.649 225.545 140.366 229.971 143.42L229.504 154.591C229.487 154.983 229.721 155.342 230.086 155.486L242.579 160.387C242.944 160.53 243.36 160.426 243.614 160.128L250.868 151.619C256.19 152.39 261.516 152.26 266.656 151.317L274.229 159.552C274.495 159.841 274.914 159.929 275.273 159.772L287.573 154.405C287.933 154.248 288.153 153.88 288.122 153.489L287.234 142.336C291.421 139.209 295.138 135.392 298.192 130.967L309.363 131.434C309.755 131.451 310.114 131.217 310.257 130.852L315.159 118.358C315.302 117.993 315.198 117.578 314.9 117.323L306.391 110.069C307.162 104.747 307.032 99.4212 306.089 94.282L314.324 86.7083C314.613 86.4428 314.701 86.0234 314.545 85.664L309.177 73.3639C309.02 73.0045 308.652 72.7842 308.261 72.8154L297.108 73.7032C293.981 69.5171 290.164 65.7995 285.739 62.7456L286.206 51.574C286.223 51.1824 285.989 50.8233 285.624 50.6801L273.13 45.7782C272.765 45.6349 272.35 45.7395 272.095 46.0379L264.841 54.5465C259.52 53.7757 254.193 53.9057 249.054 54.8488L241.48 46.6134C241.215 46.3245 240.795 46.2362 240.436 46.3932L228.136 51.761C227.777 51.918 227.556 52.2853 227.587 52.6765L228.475 63.8293C224.289 66.9563 220.572 70.7734 217.518 75.1992L206.346 74.7313C205.955 74.7147 205.595 74.949 205.452 75.3139L200.551 87.807C200.407 88.1721 200.511 88.5879 200.81 88.8425L209.318 96.0963C208.548 101.418 208.678 106.744 209.621 111.884L201.385 119.457C201.097 119.723 201.008 120.142 201.165 120.502L206.533 132.802Z" fill="#D9D9D9"/>
<path d="M251.873 91.7905C254.185 90.5586 256.816 90.0719 259.467 90.4094C266.455 91.2987 271.416 97.7075 270.527 104.695C270.096 108.08 268.373 111.095 265.674 113.184C262.975 115.272 259.626 116.186 256.241 115.755C252.856 115.324 249.841 113.601 247.753 110.903C245.664 108.204 244.751 104.854 245.182 101.469C245.612 98.0841 247.335 95.0695 250.034 92.9805C250.618 92.5283 251.234 92.1308 251.873 91.7905ZM263.032 112.856C263.585 112.562 264.117 112.218 264.623 111.826C266.959 110.018 268.451 107.409 268.824 104.479C269.594 98.4302 265.299 92.8825 259.251 92.113C256.321 91.7398 253.423 92.5308 251.085 94.3386C248.749 96.1465 247.258 98.7556 246.885 101.685C246.512 104.616 247.302 107.516 249.11 109.851C250.918 112.187 253.528 113.678 256.458 114.051C258.753 114.343 261.03 113.922 263.032 112.856Z" fill="white"/>
<path d="M242.435 73.6295C243.207 73.2183 243.999 72.8356 244.809 72.4819C252.947 68.9298 261.981 68.7602 270.247 72.0035C277.689 74.9233 283.706 80.2952 287.423 87.2769C287.835 88.0496 288.218 88.8413 288.572 89.6524C292.123 97.79 292.293 106.824 289.049 115.09C285.807 123.355 279.539 129.863 271.401 133.414C263.263 136.966 254.229 137.136 245.964 133.893C243.757 133.027 241.644 131.928 239.685 130.627L240.635 129.197C242.493 130.431 244.497 131.473 246.591 132.294C254.429 135.37 262.997 135.209 270.714 131.841C278.429 128.468 284.375 122.301 287.451 114.462C290.527 106.624 290.366 98.0563 286.998 90.3389C286.662 89.5702 286.299 88.8191 285.909 88.0863C282.384 81.4654 276.677 76.3709 269.619 73.6018C261.781 70.5261 253.214 70.6873 245.496 74.0553C237.773 77.4256 231.834 83.5956 228.759 91.4336C226.671 96.7541 226.065 102.529 227.006 108.134L225.312 108.418C224.32 102.506 224.959 96.4162 227.161 90.8065C230.081 83.3643 235.453 77.3468 242.435 73.6295Z" fill="white"/>
<path d="M334.889 105.57C334.976 105.617 335.053 105.687 335.109 105.778C335.273 106.048 335.187 106.4 334.917 106.565C334.272 106.957 333.636 107.37 333.025 107.792C332.765 107.972 332.41 107.907 332.229 107.647C332.049 107.387 332.114 107.031 332.374 106.85C333.003 106.416 333.658 105.99 334.322 105.586C334.501 105.477 334.716 105.479 334.889 105.57Z" fill="#D9D9D9"/>
<path d="M376.503 106.023C376.516 106.03 376.529 106.037 376.542 106.045C377.855 106.883 379.131 107.806 380.335 108.787C380.58 108.987 380.616 109.348 380.417 109.593C380.216 109.838 379.855 109.874 379.611 109.675C378.442 108.721 377.203 107.825 375.927 107.011C375.66 106.841 375.582 106.487 375.752 106.221C375.914 105.966 376.242 105.884 376.503 106.023ZM369.837 102.611C370.091 102.746 370.208 103.054 370.1 103.327C369.984 103.621 369.651 103.765 369.357 103.648C367.948 103.089 366.495 102.609 365.04 102.221C364.736 102.143 364.553 101.826 364.635 101.52C364.717 101.215 365.03 101.033 365.335 101.115C366.834 101.514 368.329 102.009 369.779 102.584C369.799 102.592 369.819 102.601 369.837 102.611ZM385.569 113.991C385.632 114.025 385.69 114.071 385.739 114.129C386.735 115.322 387.671 116.587 388.522 117.892C388.694 118.156 388.62 118.511 388.355 118.684C388.09 118.856 387.737 118.781 387.563 118.517C386.736 117.251 385.826 116.021 384.86 114.863C384.658 114.62 384.69 114.259 384.933 114.056C385.117 113.903 385.369 113.885 385.569 113.991ZM358.069 99.9309C358.262 100.034 358.387 100.244 358.371 100.476C358.35 100.792 358.076 101.029 357.761 101.008C356.253 100.903 354.723 100.888 353.214 100.962C352.899 100.978 352.63 100.734 352.614 100.418C352.599 100.102 352.842 99.8339 353.158 99.8184C354.711 99.742 356.287 99.758 357.839 99.8653C357.923 99.871 358 99.8943 358.069 99.9309ZM391.778 124.334C391.892 124.395 391.987 124.495 392.039 124.624C392.623 126.06 393.129 127.551 393.544 129.054C393.628 129.359 393.45 129.674 393.145 129.758C392.84 129.842 392.524 129.663 392.441 129.359C392.037 127.898 391.545 126.45 390.979 125.055C390.86 124.762 391 124.428 391.293 124.309C391.457 124.242 391.633 124.257 391.778 124.334ZM346.044 100.961C346.182 101.035 346.29 101.166 346.331 101.331C346.406 101.638 346.217 101.948 345.91 102.023L345.471 102.133C344.15 102.471 342.835 102.88 341.561 103.352C341.265 103.463 340.935 103.311 340.826 103.014C340.716 102.717 340.867 102.388 341.164 102.279C342.474 101.793 343.828 101.37 345.188 101.023L345.639 100.911C345.781 100.876 345.924 100.898 346.044 100.961ZM394.568 136.075C394.735 136.164 394.854 136.333 394.87 136.535C394.996 138.085 395.03 139.659 394.971 141.215C394.959 141.531 394.694 141.777 394.378 141.766C394.061 141.753 393.816 141.488 393.827 141.172C393.884 139.661 393.851 138.132 393.73 136.627C393.704 136.312 393.938 136.036 394.254 136.011C394.367 136.001 394.475 136.026 394.568 136.075Z" fill="#D9D9D9"/>
<path d="M393.665 148.134C393.888 148.253 394.013 148.511 393.953 148.77C393.777 149.519 393.577 150.274 393.357 151.013C393.267 151.316 392.95 151.489 392.646 151.399C392.343 151.309 392.169 150.99 392.26 150.688C392.473 149.97 392.667 149.237 392.838 148.508C392.91 148.201 393.218 148.009 393.526 148.082C393.576 148.093 393.622 148.111 393.665 148.134Z" fill="#D9D9D9"/>
<path d="M374.903 173.339C374.995 173.388 375.074 173.462 375.13 173.56C375.287 173.834 375.192 174.184 374.917 174.341C374.248 174.724 373.558 175.091 372.868 175.434C372.585 175.574 372.242 175.459 372.101 175.176C371.96 174.893 372.076 174.55 372.359 174.409C373.029 174.076 373.699 173.719 374.349 173.347C374.526 173.245 374.735 173.249 374.903 173.339Z" fill="#D9D9D9"/>
<path d="M316.14 135.745C316.337 135.849 316.462 136.064 316.442 136.3C316.311 137.78 316.267 139.284 316.31 140.77C316.319 141.086 316.07 141.35 315.754 141.359C315.438 141.368 315.175 141.119 315.165 140.803C315.122 139.272 315.167 137.724 315.301 136.2C315.329 135.885 315.606 135.652 315.922 135.679C316 135.687 316.074 135.709 316.14 135.745ZM316.907 147.594C317.05 147.67 317.16 147.806 317.197 147.977C317.294 148.417 317.398 148.857 317.511 149.298C317.768 150.302 318.068 151.307 318.403 152.286C318.505 152.585 318.345 152.91 318.046 153.013C317.746 153.115 317.421 152.956 317.319 152.656C316.975 151.649 316.666 150.614 316.402 149.581C316.286 149.129 316.178 148.676 316.079 148.223C316.012 147.914 316.207 147.609 316.515 147.54C316.654 147.51 316.791 147.533 316.907 147.594ZM366.005 177.062C366.138 177.133 366.243 177.256 366.287 177.413C366.372 177.718 366.194 178.033 365.89 178.118C365.581 178.204 365.272 178.288 364.96 178.368C363.787 178.668 362.588 178.918 361.395 179.11C361.082 179.161 360.789 178.95 360.739 178.637C360.687 178.325 360.9 178.031 361.212 177.981C362.371 177.793 363.537 177.55 364.676 177.259C364.979 177.181 365.281 177.1 365.581 177.016C365.729 176.975 365.879 176.995 366.005 177.062ZM321.157 158.683C321.249 158.732 321.329 158.807 321.385 158.904C322.121 160.196 322.939 161.457 323.818 162.654C324.006 162.909 323.951 163.267 323.696 163.454C323.442 163.641 323.084 163.589 322.896 163.332C321.991 162.1 321.148 160.801 320.39 159.472C320.234 159.197 320.329 158.847 320.604 158.691C320.781 158.59 320.989 158.594 321.157 158.683ZM354.22 178.527C354.407 178.626 354.53 178.824 354.524 179.049C354.515 179.365 354.252 179.614 353.936 179.605C352.409 179.562 350.866 179.429 349.347 179.209C349.033 179.163 348.818 178.874 348.863 178.561C348.908 178.248 349.198 178.031 349.511 178.076C350.986 178.29 352.485 178.419 353.968 178.461C354.059 178.463 354.145 178.487 354.22 178.527ZM328.527 167.987C328.57 168.009 328.611 168.038 328.648 168.073C329.736 169.084 330.895 170.043 332.094 170.924C332.349 171.111 332.404 171.469 332.216 171.724C332.029 171.979 331.669 172.041 331.416 171.846C330.183 170.94 328.989 169.953 327.869 168.911C327.637 168.697 327.624 168.334 327.839 168.102C328.02 167.908 328.303 167.868 328.527 167.987ZM342.54 176.396C342.784 176.526 342.905 176.819 342.812 177.088C342.709 177.387 342.383 177.546 342.084 177.442C340.641 176.945 339.208 176.356 337.825 175.693C337.543 175.55 337.419 175.214 337.556 174.929C337.693 174.644 338.035 174.524 338.32 174.661C339.664 175.305 341.056 175.877 342.458 176.361C342.487 176.37 342.514 176.383 342.54 176.396Z" fill="#D9D9D9"/>
<path d="M318.166 126.299C318.411 126.43 318.531 126.723 318.437 126.992C318.192 127.699 317.963 128.423 317.759 129.143C317.672 129.447 317.356 129.624 317.052 129.537C316.743 129.448 316.571 129.134 316.657 128.83C316.868 128.089 317.103 127.344 317.356 126.617C317.46 126.318 317.786 126.16 318.085 126.264C318.113 126.274 318.14 126.286 318.166 126.299Z" fill="#D9D9D9"/>
<path d="M327.994 126.273C327.885 126.443 327.897 126.663 328.022 126.82L331.599 131.319C330.712 133.852 330.222 136.545 330.19 139.307L325.295 142.311C325.123 142.416 325.037 142.619 325.08 142.816L326.574 149.546C326.618 149.742 326.782 149.89 326.981 149.913L332.688 150.564C333.886 153.053 335.468 155.286 337.344 157.206L336.006 162.795C335.959 162.991 336.042 163.195 336.212 163.303L342.027 167.006C342.196 167.114 342.416 167.103 342.574 166.977L347.073 163.401C349.606 164.288 352.299 164.778 355.06 164.81L358.065 169.705C358.17 169.877 358.373 169.963 358.569 169.919L365.3 168.426C365.496 168.382 365.644 168.219 365.667 168.018L366.318 162.312C368.807 161.114 371.04 159.531 372.96 157.656L378.549 158.994C378.745 159.04 378.949 158.958 379.057 158.788L382.76 152.973C382.868 152.803 382.857 152.583 382.731 152.426L379.154 147.927C380.042 145.394 380.532 142.701 380.564 139.939L385.459 136.935C385.631 136.83 385.717 136.627 385.673 136.431L384.18 129.7C384.136 129.503 383.972 129.356 383.772 129.334L378.066 128.682C376.868 126.193 375.285 123.96 373.41 122.04L374.748 116.451C374.795 116.255 374.712 116.051 374.542 115.943L368.727 112.24C368.557 112.132 368.337 112.143 368.179 112.269L363.681 115.845C361.148 114.958 358.455 114.468 355.693 114.436L352.689 109.541C352.584 109.369 352.381 109.283 352.184 109.327L345.454 110.82C345.257 110.864 345.11 111.027 345.087 111.227L344.436 116.934C341.947 118.132 339.714 119.715 337.794 121.59L332.205 120.252C332.009 120.205 331.805 120.288 331.697 120.458L327.994 126.273Z" fill="#D9D9D9"/>
<path d="M358.671 133.468C359.935 134.141 360.958 135.185 361.614 136.489C363.342 139.928 361.95 144.132 358.512 145.86C356.845 146.698 354.953 146.836 353.183 146.25C351.413 145.664 349.977 144.423 349.141 142.758C348.303 141.092 348.165 139.2 348.751 137.43C349.337 135.66 350.577 134.224 352.243 133.387C353.91 132.55 355.801 132.411 357.571 132.997C357.954 133.124 358.322 133.282 358.671 133.468ZM352.899 144.264C354.356 145.04 356.155 145.122 357.74 144.326C360.333 143.023 361.383 139.853 360.079 137.261C359.448 136.005 358.363 135.068 357.032 134.628C355.697 134.186 354.27 134.29 353.015 134.921C351.758 135.552 350.824 136.635 350.382 137.969C349.94 139.304 350.044 140.731 350.675 141.986C351.181 142.995 351.971 143.77 352.899 144.264Z" fill="white"/>
<path d="M363.703 124.236C364.109 124.452 364.509 124.686 364.902 124.936C368.843 127.445 371.571 131.34 372.583 135.902C373.522 140.129 372.837 144.346 370.945 147.898C368.624 152.258 364.484 155.618 359.296 156.769C349.879 158.86 340.518 152.898 338.428 143.481C338.412 143.408 338.396 143.333 338.38 143.26C338.164 142.22 338.041 141.163 338.015 140.11C338.015 140.105 338.014 140.101 338.015 140.097C338.014 140.081 338.014 140.066 338.013 140.05C338.013 140.023 338.013 139.995 338.012 139.968C338.011 139.953 338.011 139.938 338.011 139.923C338.01 139.876 338.01 139.828 338.01 139.781L339.727 139.771C339.734 140.887 339.861 142.01 340.104 143.109C341.439 149.122 346.062 153.571 351.659 154.989C353.968 155.574 356.444 155.643 358.924 155.093C363.603 154.054 367.336 151.024 369.43 147.093C371.136 143.889 371.753 140.086 370.907 136.273C369.022 127.782 360.58 122.405 352.088 124.29C349.296 124.909 346.73 126.271 344.665 128.228L343.483 126.98C345.774 124.81 348.62 123.301 351.716 122.614C355.823 121.702 360.029 122.28 363.703 124.236Z" fill="white"/>
<g opacity="0.01">
<path d="M214.059 194.391C215.894 192.673 218.374 191.818 220.879 192.043C247.663 194.452 297.637 181.55 330.298 148.132C332.566 145.812 336.699 147.123 339.299 149.066C375.623 176.214 435.833 181.836 456.734 182.985C461.058 183.223 464.566 186.577 465.013 190.884C484.021 374.471 364.489 440.997 339.697 452.74C336.987 454.023 333.797 453.837 331.251 452.252C207.693 375.289 212.979 275.202 211.27 201.042C211.212 198.529 212.224 196.109 214.059 194.391Z" fill="#FF887F"/>
</g>
<g opacity="0.597064">
<path d="M227.154 205.47C228.796 203.932 231.017 203.167 233.259 203.369C257.24 205.525 301.983 193.974 331.225 164.054C333.256 161.976 336.957 163.15 339.285 164.89C371.806 189.196 425.714 194.229 444.428 195.258C448.299 195.471 451.44 198.474 451.84 202.331C468.858 366.701 361.838 426.264 339.641 436.777C337.215 437.927 334.359 437.76 332.079 436.34C221.454 367.434 226.186 277.823 224.656 211.425C224.605 209.175 225.511 207.009 227.154 205.47Z" fill="white"/>
</g>
<path d="M242.928 218.818C244.339 217.496 246.247 216.839 248.173 217.012C268.777 218.865 307.218 208.94 332.342 183.234C334.087 181.449 337.267 182.458 339.266 183.952C367.207 204.835 413.523 209.16 429.601 210.044C432.927 210.227 435.625 212.807 435.969 216.12C450.591 357.341 358.643 408.515 339.573 417.548C337.488 418.535 335.034 418.392 333.076 417.172C238.031 357.97 242.096 280.98 240.782 223.934C240.738 222.001 241.516 220.139 242.928 218.818Z" fill="#4C4CFF"/>
<path d="M337.001 407.29C336.577 407.29 336.152 407.171 335.783 406.935C299.345 383.642 275.596 355.795 263.179 321.803C252.089 291.444 251.547 260.53 251.067 233.256L251.002 229.619C250.991 229.013 251.219 228.44 251.644 228.007C252.072 227.572 252.647 227.331 253.261 227.331H253.262C275.828 227.331 309.698 217.367 334.54 195.107C335.302 194.424 336.431 194.342 337.287 194.909C364.582 213.02 403.517 218.294 424.297 219.825C425.402 219.907 426.275 220.769 426.372 221.875C431.202 276.977 419.741 323.572 392.307 360.366C371.818 387.845 347.522 402.163 338.027 407.044C337.706 407.209 337.353 407.29 337.001 407.29ZM337.604 406.221L337.815 406.632L337.604 406.221C347.042 401.37 371.192 387.137 391.565 359.814C418.859 323.207 430.26 276.825 425.45 221.956C425.393 221.304 424.879 220.796 424.229 220.748C403.359 219.209 364.246 213.908 336.775 195.68C336.272 195.345 335.606 195.393 335.157 195.797C310.133 218.22 276.004 228.256 253.281 228.256H253.28C252.897 228.256 252.557 228.398 252.304 228.656C252.055 228.91 251.921 229.246 251.928 229.602L251.993 233.239C252.47 260.441 253.012 291.273 264.048 321.486C276.393 355.28 300.02 382.976 336.281 406.156C336.678 406.409 337.185 406.435 337.604 406.221Z" fill="white"/>
<path d="M370.224 272.126H365.926C363.792 272.126 362.061 270.396 362.061 268.262V253.571C362.061 248.313 357.799 244.05 352.54 244.05H325.908C320.65 244.05 316.387 248.313 316.387 253.571V268.262C316.387 270.396 314.657 272.126 312.523 272.126H308.225C306.09 272.126 304.36 270.396 304.36 268.262V253.571C304.36 241.671 314.008 232.023 325.908 232.023H352.54C364.441 232.023 374.088 241.671 374.088 253.571V268.262C374.088 270.396 372.358 272.126 370.224 272.126Z" fill="white"/>
<path d="M375.55 275.594H302.896C298.444 275.594 294.835 279.203 294.835 283.655V339.414C294.835 343.866 298.444 347.476 302.896 347.476H375.55C380.002 347.476 383.612 343.866 383.612 339.414V283.655C383.612 279.203 380.002 275.594 375.55 275.594ZM349.618 329.485C350.07 331.363 348.646 333.17 346.714 333.17H331.732C329.8 333.17 328.377 331.363 328.828 329.485L332.324 314.933C328.197 312.466 325.5 307.855 325.775 302.637C326.132 295.879 331.609 290.346 338.363 289.926C346.191 289.44 352.69 295.644 352.69 303.367C352.69 308.283 350.056 312.581 346.122 314.933L349.618 329.485Z" fill="white"/>
<path d="M60.7303 265.313C60.7303 265.313 66.6147 265.624 67.3363 277.731C67.3363 277.731 53.6914 289.963 35.2599 292.874C33.876 293.093 37.1943 283.428 37.6931 282.119C40.0667 275.89 47.5414 271.879 60.7303 265.313Z" fill="#1D137E"/>
<path d="M37.6928 282.119C40.8986 283.157 42.3083 287.698 50.4428 284.695C58.3127 281.789 64.1634 278.042 67.1733 275.881C67.2405 276.467 67.2968 277.078 67.3357 277.731C67.3357 277.731 52.9488 291.415 34.517 294.327C33.1335 294.545 32.0367 293.164 32.5356 291.855C33.4307 289.506 35.0445 285.943 37.6928 282.119Z" fill="#AAAAAA"/>
<path d="M127 251.079H114.583C114.583 251.079 76.4699 208.987 51.4729 204.74C51.4729 204.74 34.0725 226.952 52.3996 268.453C53.874 271.791 57.9973 273.275 61.0731 271.31C61.993 270.723 62.6535 269.935 63.0548 268.948L61.5811 233.513C61.5811 233.513 94.0912 261.946 99.7419 267.434C105.393 272.921 134.117 269.576 127 251.079Z" fill="#839CF4"/>
<path d="M6.94886 339.453C12.1524 334.893 20.4435 329.777 32.4127 328.31L36.4604 330.785C36.4604 330.785 33.8794 334.593 29.1638 338.614C24.8302 341.132 18.138 344.541 12.5901 345.28C7.19609 345.998 6.40066 342.739 6.94886 339.453Z" fill="#1D137E"/>
<path d="M3.02926 343.347C4.05508 342.181 5.36434 340.842 6.9494 339.453C6.40121 342.739 7.19646 345.999 12.5905 345.28C18.1385 344.541 24.8307 341.132 29.1644 338.615C23.7326 343.247 15.4681 348.164 5.03702 347.875C2.72014 347.811 1.49827 345.087 3.02926 343.347Z" fill="#AAAAAA"/>
<path d="M126.544 260.063L68.3935 260.693C68.3935 260.693 35.1853 288.167 29.162 330.062C29.162 330.062 28.1622 333.144 34.165 333.671C34.165 333.671 54.2421 320.558 67.3334 297.374C83.3853 268.947 115.186 281.743 115.186 281.743C130.464 285.115 142.624 283.861 151.523 270.166L126.544 260.063Z" fill="#839CF4"/>
<path d="M125.172 213.221C125.172 213.221 118.912 244.593 88.2396 257.004L77.3294 255.718L74.7549 259.823L100.347 260.639C100.347 260.639 122.223 251.974 133.814 228.364C134.197 227.584 140.579 214.406 125.172 213.221Z" fill="#FFABA8"/>
<path d="M121.817 259.551C121.817 259.551 128.936 240.201 130.465 221.398C130.465 221.398 125.258 216.922 122.003 214.991C120.948 214.366 120.55 213.043 121.083 211.94C123.477 206.982 137.949 187.515 139.033 187.245C144.926 185.774 169.093 174.283 186.113 197.565C193.418 207.557 184.664 238.314 151.524 270.167C140.861 271.903 130.891 268.83 121.817 259.551Z" fill="#000583"/>
<path d="M149.247 225.638C149.247 225.638 129.47 249.056 104.183 252.479C104.183 252.479 97.6486 246.521 92.789 248.648C87.9296 250.776 81.2666 260.165 81.2666 260.165H113.734C113.734 260.165 144.433 259.083 159.773 240.467C158.539 233.953 154.842 230.062 149.247 225.638Z" fill="#FFABA8"/>
<path d="M160.785 170.819L165.113 185.252C165.311 185.913 165.066 186.629 164.496 187.02C162.413 188.446 156.968 191.284 149.498 188.526C148.643 188.211 148.058 187.413 147.984 186.505L146.958 173.932L160.785 170.819Z" fill="#FFABA8"/>
<path d="M138.806 156.414C138.806 156.414 138.561 171.524 143.516 176.969C148.471 182.414 160.073 180.748 165.577 170.202L161.158 149.973L138.806 156.414Z" fill="#FFABA8"/>
<path d="M160.039 162.432C159.586 162.503 159.177 162.154 159.181 161.695C159.193 160.298 159.11 157.518 158.366 155.514C158.366 155.514 159.216 153.662 153.31 155.727C147.404 157.791 138.549 160.796 134.144 157.47C129.849 154.228 127.093 140.904 139.121 145.201C139.579 145.364 140.072 145.057 140.113 144.573C140.288 142.483 141.248 137.763 146.303 137.001C151.034 136.289 153.177 138.714 153.998 140.102C154.239 140.511 154.795 140.591 155.139 140.265C156.768 138.717 161.028 135.55 166.044 138.783C170.176 141.447 170.433 144.293 170.089 145.986C169.977 146.535 170.479 146.999 171.018 146.847C172.478 146.437 174.718 146.458 176.398 149.418C178.719 153.51 174.078 156.001 172.704 156.63C172.479 156.733 172.317 156.937 172.276 157.181C171.965 159.068 170.363 167.26 165.496 171.251C165.075 171.596 164.433 171.374 164.303 170.844L162.327 162.765C162.235 162.39 161.871 162.147 161.49 162.206L160.039 162.432Z" fill="#1D137E"/>
<path d="M159.729 163.959C159.729 163.959 162.926 156.36 165.467 159.396C168.009 162.431 163.394 167.491 159.844 168.032L159.729 163.959Z" fill="#FFABA8"/>
<path d="M82.9011 261.983L68.3234 213.367C67.7288 211.384 65.9667 209.977 63.901 209.836L44.2192 208.489C42.2185 208.352 40.7306 210.306 41.3947 212.198L57.6913 258.626C58.2164 260.121 59.5591 261.178 61.1362 261.338L80.5177 263.49L82.9011 261.983Z" fill="#1D137E"/>
<path d="M56.0161 229.844C57.1045 232.041 58.984 233.328 60.214 232.718C61.4442 232.109 61.5592 229.834 60.4708 227.637C59.3824 225.44 57.5032 224.153 56.273 224.763C55.0428 225.372 54.9278 227.647 56.0161 229.844Z" fill="#AAAAAA"/>
<path d="M80.5184 263.489C80.5501 263.489 80.5817 263.489 80.6135 263.487L121.911 261.399C122.932 261.348 123.718 260.478 123.666 259.458C123.615 258.436 122.742 257.634 121.724 257.702L80.4264 259.79C79.4057 259.841 78.6198 260.711 78.6713 261.732C78.7215 262.721 79.5392 263.489 80.5184 263.489Z" fill="#1D137E"/>
<path d="M130.467 221.684C130.309 221.684 130.181 221.557 130.181 221.399C130.152 212.681 133.507 201.143 133.541 201.028C133.585 200.877 133.744 200.79 133.896 200.834C134.048 200.878 134.134 201.037 134.09 201.189C134.056 201.303 130.725 212.763 130.753 221.397C130.754 221.555 130.626 221.684 130.468 221.684H130.467Z" fill="#E65C55"/>
<path d="M149.247 225.925C149.185 225.925 149.122 225.905 149.07 225.863C148.946 225.766 148.925 225.585 149.023 225.461C149.113 225.347 158.089 213.936 161.161 206.15C161.219 206.003 161.385 205.928 161.533 205.989C161.68 206.047 161.752 206.213 161.694 206.36C158.591 214.224 149.563 225.701 149.472 225.816C149.416 225.887 149.332 225.925 149.247 225.925Z" fill="#E65C55"/>
<path d="M161.971 243.471L160.338 241.161C160.246 241.032 160.277 240.853 160.406 240.762C160.535 240.67 160.714 240.701 160.805 240.83L162.171 242.761C174.908 237.177 182.793 221.94 182.872 221.785C182.943 221.645 183.115 221.588 183.257 221.661C183.398 221.732 183.454 221.905 183.382 222.046C183.302 222.202 175.238 237.79 162.184 243.38L161.971 243.471Z" fill="#E65C55"/>
</g>
</svg>
