<svg width="546" height="401" viewBox="0 0 546 401" fill="none" xmlns="http://www.w3.org/2000/svg">
<g id="[component:lottie:https://assets4.lottiefiles.com/packages/lf20_umqaz2yv.json]" opacity="0.49">
<g id="Group">
<g id="Group_2">
<path id="Vector" d="M292.023 378.842H339.186V378.573H292.023V378.842Z" fill="#E6E6E6"/>
</g>
<g id="Group_3">
<path id="Vector_2" d="M275.391 378.842H282.304V378.573H275.391V378.842Z" fill="#E6E6E6"/>
</g>
<g id="Group_4">
<path id="Vector_3" d="M267.988 260.677H292.001V354.331H267.988V260.677Z" fill="#DFDFDF"/>
</g>
<g id="Group_5">
<path id="Vector_4" d="M287.437 354.331H292.001V341.577H282.654L287.437 354.331Z" fill="#F9F9F9"/>
</g>
<g id="Group_6">
<path id="Vector_5" d="M162.762 260.677H186.776V354.331H162.762V260.677Z" fill="#DFDFDF"/>
</g>
<g id="Group_7">
<path id="Vector_6" d="M182.801 260.677H292.001V346.504H182.801V260.677Z" fill="#F9F9F9"/>
</g>
<g id="Group_8">
<path id="Vector_7" d="M288.037 264.895V287.603H186.733V264.895H288.004H288.037ZM288.431 264.477H186.34V288.011H288.463V264.477H288.431Z" fill="#DFDFDF"/>
</g>
<g id="Group_9">
<path id="Vector_8" d="M187.354 354.331H182.801V341.577H192.136L187.354 354.331Z" fill="#F9F9F9"/>
</g>
<g id="Group_10">
<path id="Vector_9" d="M234.987 276.245C234.987 277.555 236.067 278.618 237.4 278.618C238.733 278.618 239.814 277.555 239.814 276.245C239.814 274.934 238.733 273.872 237.4 273.872C236.067 273.872 234.987 274.934 234.987 276.245Z" fill="#E6E6E6"/>
</g>
<g id="Group_11">
<path id="Vector_10" d="M288.037 292.231V314.939H186.733V292.231H288.004H288.037ZM288.431 291.823H186.34V315.357H288.463V291.833L288.431 291.823Z" fill="#DFDFDF"/>
</g>
<g id="Group_12">
<path id="Vector_11" d="M234.987 303.644C234.987 304.954 236.067 306.016 237.4 306.016C238.733 306.016 239.814 304.954 239.814 303.644C239.814 302.333 238.733 301.271 237.4 301.271C236.067 301.271 234.987 302.333 234.987 303.644Z" fill="#E6E6E6"/>
</g>
<g id="Group_13">
<path id="Vector_12" d="M288.037 319.576V342.295H186.733V319.576H288.004H288.037ZM288.431 319.158H186.34V342.703H288.463V319.158H288.431Z" fill="#DFDFDF"/>
</g>
<g id="Group_14">
<path id="Vector_13" d="M234.988 330.935C234.994 332.246 236.078 333.304 237.411 333.298C238.744 333.292 239.82 332.224 239.813 330.914C239.807 329.607 238.729 328.553 237.4 328.553C236.067 328.553 234.988 329.614 234.988 330.925V330.935Z" fill="#E6E6E6"/>
</g>
<g id="Group_15">
<path id="Vector_14" d="M148.097 206.286H172.11V354.342H148.097V206.286Z" fill="#DFDFDF"/>
</g>
<g id="Group_16">
<path id="Vector_15" d="M167.546 354.331H172.11V341.577H162.773L167.546 354.331Z" fill="#F9F9F9"/>
</g>
<g id="Group_17">
<path id="Vector_16" d="M58.3567 206.286H82.37V354.342H58.3567V206.286Z" fill="#DFDFDF"/>
</g>
<g id="Group_18">
<path id="Vector_17" d="M78.3838 206.286H172.11V346.516H78.3838V206.286Z" fill="#F9F9F9"/>
</g>
<g id="Group_19">
<path id="Vector_18" d="M168.07 241.985H82.4247V210.237H168.07V241.985ZM168.572 209.753H81.9001V242.446H168.551V209.764L168.572 209.753Z" fill="#DFDFDF"/>
</g>
<g id="Group_20">
<path id="Vector_19" d="M168.07 330.067H127.272V245.861H168.07V330.067ZM168.572 245.367H126.782V330.561H168.572V245.367Z" fill="#DFDFDF"/>
</g>
<g id="Group_21">
<path id="Vector_20" d="M123.221 245.861V330.067H82.4247V245.861H123.221ZM123.714 245.367H81.9001V330.561H123.692V245.367H123.714Z" fill="#DFDFDF"/>
</g>
<g id="Group_22">
<path id="Vector_21" d="M82.948 354.331H78.3828V341.577H87.7308L82.948 354.331Z" fill="#F9F9F9"/>
</g>
<g id="Group_23">
<path id="Vector_22" d="M122.829 226.126C122.822 227.443 123.903 228.516 125.242 228.521C126.581 228.527 127.671 227.465 127.678 226.149C127.683 224.832 126.602 223.761 125.264 223.754C125.26 223.754 125.256 223.754 125.253 223.754C123.918 223.754 122.835 224.814 122.829 226.126Z" fill="#E6E6E6"/>
</g>
<g id="Group_24">
<path id="Vector_23" d="M131.477 285.961C131.477 287.278 132.562 288.344 133.9 288.344C135.24 288.344 136.325 287.278 136.325 285.961C136.325 284.644 135.24 283.578 133.9 283.578C133.897 283.578 133.893 283.578 133.89 283.578C132.557 283.578 131.477 284.64 131.477 285.95C131.477 285.954 131.477 285.957 131.477 285.961Z" fill="#E6E6E6"/>
</g>
<g id="Group_25">
<path id="Vector_24" d="M114.191 285.96C114.197 287.27 115.281 288.329 116.614 288.323C117.947 288.317 119.023 287.249 119.016 285.939C119.01 284.632 117.931 283.578 116.603 283.578C115.27 283.578 114.191 284.639 114.191 285.949C114.191 285.953 114.191 285.957 114.191 285.96Z" fill="#E6E6E6"/>
</g>
<g id="Group_26">
<path id="Vector_25" d="M111.461 165.004H101.337C102.27 169.832 102.858 174.719 103.095 179.628C103.095 184.996 95.3857 206.287 106.371 206.287C117.357 206.287 109.647 185.05 109.647 179.628C109.903 174.718 110.51 169.831 111.461 165.004Z" fill="#DFDFDF"/>
</g>
<g id="Group_27">
<path id="Vector_26" d="M72.9463 186.777V193.22C72.9704 200.408 78.8907 206.23 86.202 206.253H92.7548C100.067 206.23 105.988 200.408 106.012 193.22V186.777H72.9463Z" fill="#F5F5F5"/>
</g>
<g id="Group_28">
<path id="Vector_27" d="M213.673 247.02C213.673 254.535 222.222 260.676 232.673 260.676H242.107C252.558 260.676 261.109 254.535 261.109 247.02H213.673Z" fill="#DFDFDF"/>
</g>
<g id="Group_29">
<path id="Vector_28" d="M463.674 236.004C457.952 240.6 450.046 249.006 442.818 260.837C437.991 268.718 435.086 276.942 433.809 287.872C433.809 275.525 433.884 262.266 433.928 249.747C435.381 246.526 438.7 239.096 441.081 233.234C449.02 213.662 452.001 208.841 459.132 191.963C468.665 169.416 478.427 142.726 475.632 144.863C469.931 149.211 448.091 189.419 445.733 195.173C439.303 210.531 435.329 226.774 433.95 243.327C433.95 231.517 434.038 220.78 434.082 212.448C434.234 185.274 434.703 176.503 434.933 173.797C435.818 172.423 436.855 170.823 437.466 169.964C442.599 162.664 444.575 156.458 449.402 145.57C456.26 130.164 462.157 102.796 460.431 104.171C453.246 109.926 447.589 122.273 440.142 138.023C432.694 153.774 434.824 162.824 433.349 176.267C433.044 178.908 432.803 188.871 432.629 202.668C430.707 187.958 427.082 178.274 420.474 169.47C412.35 158.638 404.488 151.325 398.722 147.504C392.957 143.681 408.681 170.286 416.194 181.86C422.889 192.21 429.058 201.326 432.574 210.312C432.388 229.025 432.301 252.71 432.301 274.731C430.576 264.702 427.759 253.891 424.002 245.528C419.481 235.478 412.536 220.061 406.999 214.832C405.678 213.576 412.787 243.563 417.352 251.529C421.916 259.495 425.269 267.021 428.141 271.542C428.807 272.615 431.035 276.663 432.301 279.004C432.301 305.92 432.454 329.669 432.694 337.753H433.874C433.797 335.671 433.776 321.971 433.808 303.848C436.658 294.014 443.166 282.783 448.539 272.541C454.392 261.45 469.397 231.441 463.674 236.004Z" fill="#DFDFDF"/>
</g>
<g id="Group_30">
<path id="Vector_29" d="M450.385 354.33H416.162L413.574 321.348H452.973L450.385 354.33Z" fill="#EFEFEF"/>
</g>
<g id="Group_31">
<path id="Vector_30" d="M455.517 325.191H411.018L409.751 314.058H456.794L455.517 325.191Z" fill="#F5F5F5"/>
</g>
<g id="Group_32">
<path id="Vector_31" d="M74.4846 22.8857H135.692V88.9677H74.4846V22.8857Z" fill="#DFDFDF"/>
</g>
<g id="Group_33">
<path id="Vector_32" d="M79.0935 22.8857H142.321V88.9677H79.0935V22.8857Z" fill="#F5F5F5"/>
</g>
<g id="Group_34">
<path id="Vector_33" d="M137.025 83.761H84.3892V28.0928H137.025V83.761Z" fill="white"/>
</g>
<g id="Group_35">
<path id="Vector_34" d="M124.258 70.2538H97.144V41.5776H124.258V70.2538Z" fill="#F5F5F5"/>
</g>
<g id="Group_36">
<path id="Vector_35" d="M390.915 30.5825H447.776V91.9734H390.915V30.5825Z" fill="#DFDFDF"/>
</g>
<g id="Group_37">
<path id="Vector_36" d="M395.206 30.5825H453.934V91.9734H395.206V30.5825Z" fill="#F5F5F5"/>
</g>
<g id="Group_38">
<path id="Vector_37" d="M449.02 87.1323H400.131V35.4253H449.02V87.1323Z" fill="white"/>
</g>
<g id="Group_39">
<path id="Vector_38" d="M424.569 46.2793C432.995 46.2793 439.824 52.9957 439.824 61.2788C439.824 69.5627 432.995 76.2783 424.569 76.2783C416.144 76.2783 409.314 69.5627 409.314 61.2788C409.314 52.9957 416.144 46.2793 424.569 46.2793Z" fill="#F5F5F5"/>
</g>
<g id="Group_40">
<path id="Vector_39" d="M153.874 62.2886H199.279V111.311H153.874V62.2886Z" fill="#DFDFDF"/>
</g>
<g id="Group_41">
<path id="Vector_40" d="M157.292 62.2886H204.193V111.311H157.292V62.2886Z" fill="#F5F5F5"/>
</g>
<g id="Group_42">
<path id="Vector_41" d="M200.261 107.446H161.222V66.1523H200.261V107.446Z" fill="white"/>
</g>
<g id="Group_43">
<path id="Vector_42" d="M180.747 76.3521L170.067 94.5409H191.427L180.747 76.3521Z" fill="#F5F5F5"/>
</g>
</g>
<g id="Group_44">
<g id="Group_45">
<path id="Vector_43" d="M273 376.567C389.934 376.567 484.728 382.009 484.728 388.722C484.728 395.434 389.934 400.875 273 400.875C156.066 400.875 61.2727 395.434 61.2727 388.722C61.2727 382.009 156.066 376.567 273 376.567Z" fill="#F5F5F5"/>
</g>
</g>
<g id="Group_46">
<g id="Group_47">
<path id="Vector_44" d="M380.951 117.265L370.099 113.036C370.099 113.036 355.909 138.698 351.818 140.017C346.255 141.805 334.743 146.757 327.91 147.651C326.985 148.728 325.481 152.07 325.628 153.28C334.826 156.242 354.992 152.135 359.303 148.96C369.115 141.757 380.951 117.265 380.951 117.265Z" fill="#E4897A"/>
</g>
<g id="Group_48">
<path id="Vector_45" d="M384.254 111.423C386.304 118.738 375.421 133.533 375.421 133.533L361.048 125.717C361.048 125.717 363.709 119.643 366.961 113.458C372.173 103.467 381.914 103.081 384.254 111.423Z" fill="#0288D1"/>
</g>
<g id="Group_49">
<path id="Vector_46" d="M384.254 111.423C386.304 118.738 375.421 133.533 375.421 133.533L361.048 125.717C361.048 125.717 363.709 119.643 366.961 113.458C372.173 103.467 381.914 103.081 384.254 111.423Z" fill="#0288D1"/>
</g>
<g id="Group_50">
<path id="Vector_47" d="M366.752 128.843L372.414 131.925L373.337 114.889C370.059 117.386 367.774 124.867 366.752 128.843Z" fill="#0288D1"/>
</g>
<g id="Group_51">
<path id="Vector_48" d="M374.791 106.007C374.791 106.007 363.729 130.459 370.426 175.84L414.412 175.601C415.084 168.968 412.635 136.63 420.883 105.348C416.055 104.448 411.17 103.862 406.261 103.594C400.035 103.273 393.795 103.307 387.572 103.695C383.259 104.149 378.987 104.922 374.791 106.007Z" fill="#0288D1"/>
</g>
<g id="Group_52">
<path id="Vector_49" d="M374.791 106.007C374.791 106.007 363.729 130.459 370.426 175.84L414.412 175.601C415.084 168.968 412.635 136.63 420.883 105.348C416.055 104.448 411.17 103.862 406.261 103.594C400.035 103.273 393.795 103.307 387.572 103.695C383.259 104.149 378.987 104.922 374.791 106.007Z" fill="#0288D1"/>
</g>
<g id="Group_53">
<path id="Vector_50" d="M365.815 389.775C365.755 390.912 382.432 391.741 403.06 391.633C423.689 391.524 440.481 390.52 440.541 389.382C440.602 388.245 423.935 387.426 403.295 387.535C382.656 387.643 365.887 388.647 365.815 389.775Z" fill="#E8EBF0"/>
</g>
<g id="Group_54">
<path id="Vector_51" d="M387.251 362.161L395.039 359.153L401.83 376.165L394.041 379.173L387.251 362.161Z" fill="#E4897A"/>
</g>
<g id="Group_55">
<path id="Vector_52" d="M429.913 381.196L421.686 381.24L418.594 362.558L426.82 362.513L429.913 381.196Z" fill="#E4897A"/>
</g>
<g id="Group_56">
<path id="Vector_53" d="M421.119 380.327L430.358 380.277C430.689 380.276 430.972 380.509 431.027 380.829L432.246 387.982C432.346 388.672 431.855 389.312 431.15 389.41C431.088 389.419 431.026 389.423 430.963 389.423C427.742 389.387 426.191 389.203 422.127 389.225C419.627 389.239 414.484 389.523 411.011 389.541C407.539 389.56 407.296 386.223 408.725 385.905C415.14 384.511 417.623 382.647 419.756 380.837C420.132 380.51 420.617 380.329 421.119 380.327Z" fill="#253138"/>
</g>
<g id="Group_57">
<path id="Vector_54" d="M393.807 377.666L402.534 375.112C402.855 375.021 403.196 375.163 403.354 375.451L406.657 381.859C406.949 382.475 406.674 383.208 406.045 383.494C405.98 383.523 405.914 383.547 405.845 383.566C402.67 384.439 400.543 384.975 396.573 386.131C393.835 386.928 391.044 388.217 388.34 389.078C386.464 389.677 382.052 389.723 379.769 389.735C376.394 389.753 375.627 386.267 377.079 386.098C380.735 385.682 381.227 385.861 383.243 384.855C386.543 383.419 389.531 381.375 392.043 378.832C392.516 378.298 393.125 377.895 393.807 377.666Z" fill="#253138"/>
</g>
<g id="Group_58">
<path id="Vector_55" d="M329.293 147.587L320.234 143.917L316.55 153.777C320.259 154.311 324.029 154.291 327.734 153.716L329.293 147.587Z" fill="#E4897A"/>
</g>
<g id="Group_59">
<path id="Vector_56" d="M313.506 143.684L313.293 150.229L316.551 153.752L320.235 143.883L313.506 143.684Z" fill="#E4897A"/>
</g>
<g id="Group_60">
<path id="Vector_57" d="M388.302 363.601L396.114 360.592L399.616 369.387L391.803 372.396L388.302 363.601Z" fill="#CF6E63"/>
</g>
<g id="Group_61">
<path id="Vector_58" d="M426.82 362.511L418.594 362.556L420.198 372.187L428.421 372.142L426.82 362.511Z" fill="#CF6E63"/>
</g>
<g id="Group_62">
<path id="Vector_59" d="M368.983 163.565C369.156 165.504 369.349 167.486 369.598 169.521L402.254 158.924C407.354 157.411 411.779 154.238 414.799 149.927C414.918 147.064 415.069 144.051 415.308 140.908C415.41 139.386 415.535 137.82 415.67 136.233C415.807 134.645 415.996 132.887 416.196 131.192L368.983 163.565Z" fill="#0288D1"/>
</g>
<g id="Group_63">
<path id="Vector_60" d="M379.516 128.293L378.423 128.171C379.045 122.806 383.102 118.559 387.394 118.642L387.399 119.714C383.641 119.66 380.075 123.485 379.516 128.293Z" fill="white"/>
</g>
<g id="Group_64">
<path id="Vector_61" d="M385.379 138.179L385.193 138.18L385.189 137.108C388.946 137.227 392.457 133.358 393.017 128.562L394.109 128.684C393.552 133.931 389.627 138.156 385.379 138.179Z" fill="white"/>
</g>
<g id="Group_65">
<path id="Vector_62" d="M405.557 82.8894C404.041 88.8077 402.272 99.6409 406.253 103.556C406.253 103.556 403.504 109.568 392.33 109.628C382.118 109.684 387.565 103.657 387.565 103.657C394.352 102.054 394.453 97.1832 393.538 92.576L405.557 82.8894Z" fill="#E4897A"/>
</g>
<g id="Group_66">
<path id="Vector_63" d="M400.656 86.8385L393.546 92.5734C393.772 93.6325 393.904 94.7079 393.942 95.7891C396.037 97.8159 400.199 92.6343 400.615 89.9935C400.826 88.953 400.841 87.8829 400.656 86.8385Z" fill="#CF6E63"/>
</g>
<g id="Group_67">
<path id="Vector_64" d="M381.242 82.9183C382.252 84.6203 383.939 85.8306 385.898 86.2597C388.522 86.8139 389.822 84.437 389.092 82.0606C388.438 79.9194 386.275 77.0471 383.612 77.5549C381.64 77.9652 380.378 79.8654 380.792 81.8002C380.877 82.1949 381.029 82.5734 381.242 82.9183Z" fill="#CF6E63"/>
</g>
<g id="Group_68">
<path id="Vector_65" d="M385.498 63.9739C381.42 65.8311 380.044 81.7862 385.188 84.1184C390.333 86.4514 393.219 60.4443 385.498 63.9739Z" fill="#253138"/>
</g>
<g id="Group_69">
<path id="Vector_66" d="M406.761 73.9721C405.811 81.9792 405.721 86.6891 401.368 90.8106C397.329 94.9075 390.676 95.0164 386.51 91.0544C384.921 89.5434 383.86 87.5783 383.476 85.4377C382.125 78.2582 383.9 66.3732 392.057 63.1433C397.363 60.8123 403.582 63.1429 405.948 68.3504C406.749 70.1119 407.031 72.0593 406.761 73.9721Z" fill="#E4897A"/>
</g>
<g id="Group_70">
<path id="Vector_67" d="M393.311 68.0807C399.355 66.5358 403.796 65.4824 402.222 70.4343C400.14 77.0508 397.633 83.455 401.031 83.7257C403.107 83.8966 412.266 80.03 411.082 76.1653C410.052 72.8043 414.34 71.8586 415.098 70.1497C417.901 63.9585 409.811 64.8172 411.237 61.0566C412.663 57.296 404.645 51.2924 400.288 54.3287C393.198 59.2352 380.997 59.2262 387.375 51.1821C391.949 45.4421 383.752 46.6552 383.752 46.6552C383.752 46.6552 388.723 49.513 380.398 54.0189C371.592 58.827 379.738 71.5753 393.311 68.0807Z" fill="#253138"/>
</g>
<g id="Group_71">
<path id="Vector_68" d="M410.007 82.7885C408.819 84.4919 407.03 85.7019 404.986 86.1827C402.291 86.766 401.243 84.402 402.25 82.0162C403.147 79.8667 405.624 76.9691 408.204 77.4482C410.784 77.9273 411.385 80.6793 410.007 82.7885Z" fill="#E4897A"/>
</g>
<g id="Group_72">
<path id="Vector_69" d="M370.449 175.88C370.449 175.88 363.327 240.859 362.849 265.507C362.364 291.142 388.327 370.981 388.327 370.981L401.421 365.543C401.421 365.543 385.818 292.55 387.901 267.368C390.105 239.909 399.416 175.766 399.416 175.766L370.449 175.88Z" fill="#053F5F"/>
</g>
<g id="Group_73">
<path id="Vector_70" d="M388.865 193.605C383.022 205.638 387.088 229.35 390.339 243.394C391.511 233.459 392.91 222.674 394.236 212.694C394.042 197.367 392.78 185.533 388.865 193.605Z" fill="#053F5F"/>
</g>
<g id="Group_74">
<path id="Vector_71" d="M400.824 361.342C400.89 361.342 402.392 365.428 402.392 365.428L387.303 371.745L384.905 367.408L400.824 361.342Z" fill="#053F5F"/>
</g>
<g id="Group_75">
<path id="Vector_72" d="M386.045 175.833C386.045 175.833 391.948 237.562 395.781 260.672C399.995 285.991 416.452 370.3 416.452 370.3L431.524 370.218C431.524 370.218 422.159 287.922 420.35 262.836C418.381 235.627 414.439 175.68 414.439 175.68L386.045 175.833Z" fill="#053F5F"/>
</g>
<g id="Group_76">
<path id="Vector_73" d="M431.739 366.415C431.804 366.415 432.258 370.527 432.258 370.527L415.702 370.617L414.503 365.899L431.739 366.415Z" fill="#0288D1"/>
</g>
<g id="Group_77">
<path id="Vector_74" d="M425.951 361.529C425.88 361.53 425.819 361.48 425.808 361.411C425.718 360.661 417.256 286.308 415.632 263.773C413.867 239.327 410.295 185.1 410.26 184.553C410.253 184.482 410.307 184.419 410.379 184.412C410.383 184.412 410.387 184.412 410.391 184.412C410.465 184.411 410.528 184.467 410.534 184.54C410.536 185.088 414.141 239.271 415.905 263.761C417.53 286.296 425.991 360.594 426.071 361.399C426.083 361.469 426.036 361.536 425.965 361.549C425.96 361.55 425.956 361.55 425.951 361.55L425.951 361.529Z" fill="black"/>
</g>
<g id="Group_78">
<path id="Vector_75" d="M394.274 76.268C394.277 76.9229 393.864 77.4503 393.427 77.4527C392.991 77.4552 392.672 76.9318 392.713 76.2767C392.754 75.6215 393.123 75.0944 393.559 75.0919C393.997 75.0895 394.316 75.6243 394.274 76.268Z" fill="#253138"/>
</g>
<g id="Group_79">
<path id="Vector_76" d="M386.784 76.2987C386.787 76.9536 386.363 77.4811 385.936 77.4834C385.511 77.4858 385.181 76.9625 385.211 76.3074C385.241 75.6524 385.632 75.1251 386.069 75.1226C386.506 75.1202 386.825 75.655 386.784 76.2987Z" fill="#253138"/>
</g>
<g id="Group_80">
<path id="Vector_77" d="M389.145 76.6223C388.241 78.6259 387.073 80.5055 385.672 82.2111C386.768 83.278 388.809 82.7732 388.809 82.7732L389.145 76.6223Z" fill="#DF5652"/>
</g>
<g id="Group_81">
<path id="Vector_78" d="M389.378 85.5122C389.276 85.5128 389.192 85.4318 389.192 85.3312C389.192 85.3277 389.192 85.3242 389.192 85.3207C389.197 85.2121 389.288 85.1267 389.397 85.1261C391.09 85.129 392.693 84.3788 393.758 83.088C393.836 83.0211 393.953 83.0204 394.031 83.0865C394.105 83.1614 394.105 83.2795 394.032 83.3543C392.892 84.7269 391.182 85.5197 389.378 85.5122Z" fill="#253138"/>
</g>
<g id="Group_82">
<path id="Vector_79" d="M395.599 74.2835C395.493 74.3374 395.367 74.3381 395.26 74.2854C394.429 73.7655 393.396 73.6645 392.474 74.0132C392.292 74.1033 392.068 74.032 391.975 73.8525C391.973 73.8498 391.972 73.8472 391.97 73.8446C391.886 73.6466 391.977 73.4189 392.176 73.3295C393.333 72.8598 394.651 72.9723 395.704 73.6308C395.88 73.7461 395.927 73.9793 395.809 74.1512C395.808 74.1521 395.807 74.1539 395.806 74.1548C395.751 74.2163 395.679 74.2604 395.599 74.2835Z" fill="#253138"/>
</g>
<g id="Group_83">
<path id="Vector_80" d="M383.871 72.1896C383.813 72.1759 383.759 72.1465 383.718 72.1047C383.567 71.9611 383.563 71.723 383.71 71.5743C383.712 71.5725 383.714 71.5708 383.716 71.569C384.561 70.6312 385.803 70.1324 387.074 70.2217C387.277 70.2512 387.416 70.4369 387.386 70.6358C387.385 70.6437 387.383 70.6516 387.381 70.6594C387.334 70.8654 387.138 71.0039 386.924 70.9832C385.918 70.9266 384.941 71.3277 384.275 72.0692C384.174 72.181 384.018 72.2273 383.871 72.1896Z" fill="#253138"/>
</g>
<g id="Group_84">
<path id="Vector_81" d="M425.151 115.892L413.779 112.985C413.779 112.985 402.751 139.969 398.815 141.738C393.473 144.169 379.954 152.563 374.203 156.529C373.892 157.871 374.157 161.418 374.882 162.39C384.705 160.578 403.494 153.368 407.411 149.733C416.344 141.439 425.151 115.892 425.151 115.892Z" fill="#E4897A"/>
</g>
<g id="Group_85">
<path id="Vector_82" d="M418.361 381.739C417.807 381.786 417.254 381.641 416.798 381.33C416.511 381.078 416.381 380.696 416.455 380.325C416.468 380.094 416.61 379.887 416.824 379.787C417.74 379.322 420.313 380.904 420.608 381.085C420.675 381.124 420.706 381.203 420.685 381.277C420.667 381.353 420.609 381.414 420.533 381.438C419.822 381.614 419.094 381.715 418.361 381.739ZM417.262 380.075C417.179 380.057 417.093 380.057 417.011 380.076C416.926 380.119 416.875 380.208 416.881 380.302C416.822 380.556 416.907 380.82 417.102 380.997C417.53 381.369 418.6 381.406 420.007 381.131C419.167 380.594 418.22 380.234 417.229 380.075L417.262 380.075Z" fill="#0288D1"/>
</g>
<g id="Group_86">
<path id="Vector_83" d="M420.479 381.44C420.45 381.449 420.42 381.449 420.391 381.441C419.57 380.995 418.023 379.233 418.248 378.33C418.318 378.036 418.584 377.826 418.891 377.823C419.188 377.783 419.487 377.871 419.712 378.066C420.621 378.822 420.686 381.16 420.686 381.279C420.697 381.35 420.656 381.422 420.588 381.45C420.55 381.458 420.514 381.455 420.479 381.44ZM419.002 378.176L418.924 378.177C418.673 378.178 418.642 378.318 418.631 378.371C418.502 378.898 419.479 380.233 420.29 380.862C420.283 379.956 419.993 379.074 419.46 378.335C419.333 378.227 419.169 378.17 419.002 378.176Z" fill="#0288D1"/>
</g>
<g id="Group_87">
<path id="Vector_84" d="M389.363 380.517C388.696 380.749 387.968 380.753 387.298 380.529C386.989 380.366 386.786 380.06 386.76 379.718C386.731 379.503 386.818 379.288 386.988 379.15C387.858 378.374 391.432 379.125 391.837 379.273C391.915 379.292 391.97 379.363 391.967 379.443C391.971 379.526 391.924 379.602 391.849 379.636C391.046 379.997 390.215 380.292 389.363 380.517ZM387.578 379.253C387.453 379.278 387.335 379.334 387.239 379.416C387.168 379.468 387.135 379.555 387.153 379.641C387.168 379.869 387.3 380.074 387.504 380.185C388.084 380.482 389.427 380.238 391.16 379.512C389.989 379.229 388.779 379.142 387.578 379.253Z" fill="#0288D1"/>
</g>
<g id="Group_88">
<path id="Vector_85" d="M391.816 379.636L391.728 379.637C390.635 379.449 388.447 378.228 388.378 377.306C388.377 377.091 388.473 376.792 388.996 376.617C389.353 376.49 389.748 376.511 390.088 376.675C391.27 377.238 391.902 379.293 391.935 379.389C391.95 379.455 391.931 379.524 391.881 379.572C391.865 379.598 391.842 379.619 391.816 379.636ZM389.217 376.938L389.108 376.938C388.769 377.059 388.77 377.197 388.77 377.24C388.772 377.797 390.359 378.808 391.464 379.146C391.206 378.286 390.667 377.534 389.927 377.009C389.707 376.901 389.455 376.875 389.217 376.938Z" fill="#0288D1"/>
</g>
<g id="Group_89">
<path id="Vector_86" d="M375.138 155.887L363.769 161.094L362.46 164.318L366.676 167.071C366.676 167.071 374.537 166.192 376.755 161.217L375.138 155.887Z" fill="#E4897A"/>
</g>
<g id="Group_90">
<path id="Vector_87" d="M375.646 162.569C375.383 160.42 374.651 158.353 373.501 156.508L375.299 155.167C376.663 157.293 377.538 159.687 377.862 162.181L375.646 162.569Z" fill="#253138"/>
</g>
<g id="Group_91">
<path id="Vector_88" d="M377.569 157.399C378.22 158.395 377.925 159.723 376.91 160.364C375.894 161.005 374.543 160.716 373.891 159.72C373.24 158.724 373.535 157.398 374.551 156.757C374.661 156.688 374.779 156.627 374.9 156.577C375.869 156.085 377.06 156.452 377.569 157.399Z" fill="#253138"/>
</g>
<g id="Group_92">
<path id="Vector_89" d="M356.089 165.288L357.613 166.78L367.817 162.441L363.771 161.091L356.089 165.288Z" fill="#E4897A"/>
</g>
<g id="Group_93">
<path id="Vector_90" d="M400.824 361.342C400.89 361.342 402.392 365.427 402.392 365.427L387.303 371.744L384.905 367.407L400.824 361.342Z" fill="#0288D1"/>
</g>
<g id="Group_94">
<path id="Vector_91" d="M431.738 366.417C431.804 366.416 432.258 370.528 432.258 370.528L415.702 370.618L414.503 365.901L431.738 366.417Z" fill="#0288D1"/>
</g>
<g id="Group_95">
<path id="Vector_92" d="M428.092 112.785C431.135 122.281 419.448 135.354 419.448 135.354L403.201 128.945C405.101 123.435 407.295 118.027 409.774 112.745C414.712 102.175 425.016 103.202 428.092 112.785Z" fill="#053F5F"/>
</g>
<g id="Group_96">
<path id="Vector_93" d="M428.092 112.786C431.135 122.282 419.448 135.355 419.448 135.355L403.201 128.945C405.101 123.435 407.295 118.028 409.774 112.746C414.712 102.176 425.016 103.203 428.092 112.786Z" fill="#0288D1"/>
</g>
</g>
<g id="Group_97">
<g id="Group_98">
<path id="Vector_94" d="M355.566 24.0815H226.709L214.72 287.897H343.576L355.566 24.0815Z" fill="#372655"/>
</g>
<g id="Group_99">
<path id="Vector_95" d="M351.723 27.71H222.867L210.876 291.526H339.732L351.723 27.71Z" fill="#F9F9F9"/>
</g>
<g id="Group_100">
<path id="Vector_96" d="M347.879 31.3281H219.023L207.021 295.144H335.877L347.879 31.3281Z" fill="#2068BD"/>
</g>
<g id="Group_101">
<path id="Vector_97" d="M333.213 146.391H223.226L222.309 166.576H332.295L333.213 146.391Z" fill="white"/>
</g>
<g id="Group_102">
<path id="Vector_98" d="M283.712 131.661H223.892L223.488 140.691H283.308L283.712 131.661Z" fill="#4A90E2"/>
</g>
<g id="Group_103">
<path id="Vector_99" d="M330.734 200.869H220.747L219.83 221.054H329.816L330.734 200.869Z" fill="white"/>
</g>
<g id="Group_104">
<path id="Vector_100" d="M310.565 248.314H236.603L235.501 272.503H309.462L310.565 248.314Z" fill="#4A90E2"/>
</g>
<g id="Group_105">
<path id="Vector_101" d="M270.794 186.138H221.414L221.01 195.178H270.379L270.794 186.138Z" fill="#4A90E2"/>
</g>
<g id="Group_106">
<path id="Vector_102" d="M309.156 81.1893C308.875 87.0636 306.749 92.7082 303.074 97.3475C297.56 104.45 289.011 108.641 279.924 108.696C265.263 108.806 253.287 97.2098 253.175 82.7953C253.171 82.2594 253.184 81.7243 253.213 81.1893C254.01 65.8643 266.817 53.8042 282.424 53.6823C297.073 53.5481 309.058 65.1144 309.195 79.5174C309.2 80.0744 309.188 80.6323 309.156 81.1893Z" fill="white"/>
</g>
<g id="Group_107">
<path id="Vector_103" d="M311.788 59.4372C311.716 60.9994 311.152 62.5002 310.171 63.7317C308.702 65.6176 306.429 66.7316 304.013 66.7483C301.667 66.7623 299.466 65.6326 298.138 63.7317C297.271 62.4669 296.842 60.9608 296.915 59.4372C297.134 55.3689 300.535 52.1707 304.679 52.1365C308.574 52.1014 311.762 55.1785 311.798 59.0082C311.798 59.1512 311.796 59.2942 311.788 59.4372Z" fill="#4A90E2"/>
</g>
<g id="Group_108">
<path id="Vector_104" d="M235.075 156.483C234.966 158.278 233.464 159.686 231.635 159.705C229.917 159.725 228.507 158.371 228.487 156.681C228.486 156.615 228.487 156.549 228.49 156.483C228.588 154.683 230.096 153.271 231.929 153.262C233.654 153.248 235.065 154.613 235.079 156.309C235.08 156.367 235.078 156.424 235.075 156.483Z" fill="#253138"/>
</g>
<g id="Group_109">
<path id="Vector_105" d="M249.795 156.483C249.691 158.281 248.186 159.691 246.355 159.705C244.636 159.719 243.231 158.36 243.217 156.67C243.216 156.608 243.218 156.546 243.221 156.483C243.319 154.688 244.821 153.276 246.65 153.262C248.368 153.242 249.778 154.597 249.798 156.287C249.798 156.353 249.798 156.418 249.795 156.483Z" fill="#253138"/>
</g>
<g id="Group_110">
<path id="Vector_106" d="M264.526 156.483C264.423 158.281 262.918 159.691 261.086 159.705C259.361 159.719 257.952 158.354 257.938 156.659C257.938 156.6 257.938 156.542 257.941 156.483C258.045 154.686 259.551 153.276 261.381 153.262C263.1 153.242 264.51 154.597 264.531 156.287C264.531 156.353 264.53 156.418 264.526 156.483Z" fill="#253138"/>
</g>
<g id="Group_111">
<path id="Vector_107" d="M232.596 210.961C232.487 212.756 230.985 214.163 229.156 214.182C227.431 214.196 226.022 212.832 226.007 211.137C226.007 211.078 226.008 211.02 226.011 210.961C226.114 209.164 227.62 207.754 229.451 207.74C231.176 207.726 232.585 209.09 232.599 210.786C232.6 210.845 232.599 210.903 232.596 210.961Z" fill="#253138"/>
</g>
<g id="Group_112">
<path id="Vector_108" d="M247.317 210.961C247.213 212.754 245.714 214.164 243.888 214.183C242.169 214.203 240.759 212.849 240.739 211.159C240.738 211.093 240.74 211.027 240.743 210.961C240.847 209.164 242.352 207.754 244.182 207.74C245.902 207.726 247.305 209.085 247.32 210.775C247.32 210.838 247.32 210.899 247.317 210.961Z" fill="#253138"/>
</g>
<g id="Group_113">
<path id="Vector_109" d="M262.08 210.961C261.977 212.758 260.472 214.168 258.64 214.182C256.909 214.19 255.5 212.816 255.492 211.114C255.492 211.064 255.493 211.012 255.495 210.961C255.604 209.166 257.106 207.759 258.935 207.74C260.654 207.72 262.064 209.073 262.085 210.764C262.085 210.829 262.084 210.895 262.08 210.961Z" fill="#253138"/>
</g>
<g id="Group_114">
<path id="Vector_110" d="M276.778 210.961C276.669 212.756 275.167 214.164 273.338 214.183C271.607 214.191 270.197 212.816 270.19 211.115C270.189 211.064 270.191 211.012 270.193 210.961C270.302 209.167 271.804 207.76 273.633 207.74C275.358 207.726 276.767 209.09 276.781 210.786C276.782 210.845 276.781 210.903 276.778 210.961Z" fill="#253138"/>
</g>
<g id="Group_115">
<path id="Vector_111" d="M291.564 210.961C291.455 212.756 289.953 214.164 288.124 214.183C286.405 214.203 284.996 212.849 284.975 211.159C284.974 211.093 284.975 211.027 284.979 210.961C285.082 209.164 286.587 207.754 288.418 207.74C290.143 207.726 291.553 209.091 291.567 210.787C291.568 210.845 291.566 210.903 291.564 210.961Z" fill="#253138"/>
</g>
<g id="Group_116">
<path id="Vector_112" d="M273.861 64.2045C278.431 59.8099 285.599 59.7292 289.871 64.0238C294.142 68.3184 293.9 75.362 289.329 79.7566C284.759 84.1512 277.591 84.2319 273.319 79.9373C269.048 75.6427 269.29 68.5991 273.861 64.2045Z" fill="#4A90E2"/>
</g>
<g id="Group_117">
<path id="Vector_113" d="M303.074 97.3475C297.56 104.45 289.011 108.641 279.923 108.696C271.093 108.77 262.804 104.514 257.82 97.3475C263.127 92.1512 271.525 88.7583 280.829 88.7583C290.133 88.7583 298.236 92.1512 303.074 97.3475Z" fill="#4A90E2"/>
</g>
<g id="Group_118">
<path id="Vector_114" d="M273.86 64.2045C278.43 59.8099 285.598 59.7292 289.87 64.0238C294.141 68.3184 293.899 75.362 289.328 79.7566C284.758 84.1512 277.59 84.2319 273.318 79.9373C269.047 75.6427 269.289 68.5991 273.86 64.2045Z" fill="#4A90E2"/>
</g>
<g id="Group_119">
<path id="Vector_115" d="M303.074 97.3485C297.56 104.451 289.011 108.642 279.923 108.697C271.093 108.771 262.804 104.515 257.82 97.3485C263.127 92.1521 271.525 88.7593 280.829 88.7593C290.133 88.7593 298.236 92.1521 303.074 97.3485Z" fill="#4A90E2"/>
</g>
</g>
<g id="Group_120">
<g id="Group_121">
<path id="Vector_116" d="M141.917 170.077C140.892 172.317 139.814 174.782 138.878 177.17C137.941 179.559 136.983 182.023 136.156 184.476C134.466 189.309 133.188 194.271 132.332 199.31L132.1 200.89C132.08 201.16 132.107 201.432 132.182 201.694C132.445 202.581 132.856 203.418 133.398 204.172C134.813 206.125 136.452 207.912 138.282 209.498C140.211 211.236 142.235 212.871 144.344 214.396C146.451 215.967 148.667 217.496 150.85 218.938L148.829 222.718C143.624 220.538 138.678 217.802 134.083 214.562C131.631 212.833 129.416 210.802 127.491 208.52C126.35 207.161 125.457 205.619 124.853 203.96C124.5 202.925 124.317 201.839 124.309 200.746L124.304 199.93L124.301 199.405L124.404 198.332C124.997 192.738 126.161 187.216 127.879 181.849C128.716 179.203 129.608 176.568 130.631 173.996C131.653 171.424 132.709 168.905 134.016 166.289L141.917 170.077Z" fill="#E4897A"/>
</g>
<g id="Group_122">
<path id="Vector_117" d="M149.304 218.329L157.003 214.434L155.053 222.764C155.053 222.764 149.765 224.263 147.292 221.753L149.304 218.329Z" fill="#E4897A"/>
</g>
<g id="Group_123">
<path id="Vector_118" d="M164.076 215.753L162.064 222.648L155.051 222.778L157.001 214.448L164.076 215.753Z" fill="#E4897A"/>
</g>
<g id="Group_124">
<path id="Vector_119" d="M174.439 129.674C174.862 131.157 175.445 132.593 176.181 133.953C175.751 134.438 175.085 134.653 174.447 134.513L174.439 129.674Z" fill="#DF5652"/>
</g>
<g id="Group_125">
<path id="Vector_120" d="M174.195 127.268C174.648 127.264 175.018 127.815 175.022 128.496C175.026 129.177 174.662 129.732 174.21 129.736C173.757 129.739 173.387 129.19 173.383 128.509C173.379 127.827 173.743 127.272 174.195 127.268Z" fill="#253138"/>
</g>
<g id="Group_126">
<path id="Vector_121" d="M173.955 127.313L175.612 126.841C175.612 126.841 174.812 128.109 173.955 127.313Z" fill="#253138"/>
</g>
<g id="Group_127">
<path id="Vector_122" d="M153.162 137.707C154.186 142.686 155.234 151.823 151.692 155.185C151.692 155.185 153.121 160.234 162.571 160.161C172.959 160.08 167.499 155.062 167.499 155.062C161.822 153.776 161.939 149.648 162.91 145.759L153.162 137.707Z" fill="#E4897A"/>
</g>
<g id="Group_128">
<path id="Vector_123" d="M150.325 126.342C150.899 134.668 150.963 138.206 155.271 142.45C161.764 148.833 172.063 146.309 174.035 138.016C175.815 130.497 174.584 118.154 166.251 114.906C160.312 112.556 153.548 115.383 151.141 121.215C150.471 122.841 150.191 124.594 150.325 126.342Z" fill="#E4897A"/>
</g>
<g id="Group_129">
<path id="Vector_124" d="M151.114 116.968C146.862 118.523 141.177 117.432 143.481 130.307C145.921 143.943 142.322 148.461 142.322 148.461C142.322 148.461 158.497 151.711 174.969 148.003C174.969 148.003 169.882 139.405 171.253 133.028C173.008 124.976 171.571 122.018 171.571 122.018C171.571 122.018 157.087 114.778 151.114 116.968Z" fill="#253138"/>
</g>
<g id="Group_130">
<path id="Vector_125" d="M169.215 130.555C169.229 132.139 169.699 133.686 170.573 135.017C171.742 136.745 173.104 136.07 173.431 134.223C173.728 132.601 173.481 129.738 171.999 128.634C170.517 127.531 169.224 128.635 169.215 130.555Z" fill="#E4897A"/>
</g>
<g id="Group_131">
<path id="Vector_126" d="M147.416 118.384C146.173 115.023 151.974 109.789 164.328 111.833C176.682 113.877 177.277 123.941 177.277 123.941L174.77 121.051L174.897 124.109L162.231 126.594L147.416 118.384Z" fill="#253138"/>
</g>
<g id="Group_132">
<path id="Vector_127" d="M148.698 155.782C148.54 154.77 149.236 153.818 150.269 153.636C154.109 152.988 162.838 151.662 167.232 152.225C170.511 152.647 171.373 154.497 171.525 156.021C171.616 157.054 170.834 157.966 169.776 158.058C169.69 158.065 169.602 158.067 169.516 158.063L150.531 157.378C149.608 157.34 148.842 156.672 148.698 155.782Z" fill="#407AFF"/>
</g>
<g id="Group_133">
<path id="Vector_128" d="M148.698 155.78C148.54 154.769 149.236 153.817 150.269 153.635C154.109 152.986 162.838 151.66 167.232 152.223C170.511 152.646 171.373 154.495 171.525 156.019C171.616 157.052 170.834 157.965 169.776 158.056C169.69 158.064 169.602 158.066 169.516 158.062L150.531 157.376C149.608 157.338 148.842 156.671 148.698 155.78Z" fill="#E91E63"/>
</g>
<g id="Group_134">
<path id="Vector_129" d="M160.831 343.269L167.905 348.017L179.598 332.243L172.524 327.508L160.831 343.269Z" fill="#E4897A"/>
</g>
<g id="Group_135">
<path id="Vector_130" d="M144.406 343.055L151.868 347.156L162.202 330.492L154.738 326.391L144.406 343.055Z" fill="#E4897A"/>
</g>
<g id="Group_136">
<path id="Vector_131" d="M179.585 332.243L173.56 340.371L166.486 335.636L172.511 327.508L179.585 332.243Z" fill="#CF6E63"/>
</g>
<g id="Group_137">
<path id="Vector_132" d="M154.725 326.391L162.2 330.501L156.876 339.084L149.402 334.974L154.725 326.391Z" fill="#CF6E63"/>
</g>
<g id="Group_138">
<path id="Vector_133" d="M165.958 208.141C165.958 208.141 193.676 241.97 188.7 274.571C184.691 300.9 160.752 336.696 160.752 336.696L149.365 331.249C157.275 315.442 164.008 299.096 169.511 282.338C172.95 271.797 171.27 260.3 164.956 251.152C150.894 231.273 128.628 243.345 143.447 208.317L165.958 208.141Z" fill="#E91E63"/>
</g>
<g id="Group_139">
<path id="Vector_134" d="M165.958 208.141C165.958 208.141 193.675 241.97 188.699 274.571C184.69 300.9 160.751 336.696 160.751 336.696L149.364 331.249C157.274 315.442 164.007 299.096 169.511 282.338C172.949 271.797 171.269 260.3 164.955 251.152C150.893 231.273 128.627 243.345 143.447 208.317L165.958 208.141Z" fill="#E91E63"/>
</g>
<g id="Group_140">
<path id="Vector_135" d="M179.564 229.916L175.539 226.041C175.54 226.352 183.57 273.265 185.824 286.448C187.085 282.582 188.045 278.628 188.696 274.62C191.16 258.621 185.716 242.339 179.564 229.916Z" fill="#E91E63"/>
</g>
<g id="Group_141">
<path id="Vector_136" d="M178.23 208.087C178.23 208.087 211.611 250.606 212.701 276.246C213.604 297.693 177.018 339.545 177.018 339.545L166.271 332.828C166.271 332.828 187.654 303.141 192.941 278.986C190.702 255.103 146.063 208.337 146.063 208.337L178.23 208.087Z" fill="#E91E63"/>
</g>
<g id="Group_142">
<path id="Vector_137" d="M178.231 208.087C178.231 208.087 211.612 250.606 212.702 276.246C213.605 297.693 177.019 339.545 177.019 339.545L166.272 332.828C166.272 332.828 187.655 303.141 192.942 278.986C190.703 255.103 146.064 208.337 146.064 208.337L178.231 208.087Z" fill="#E91E63"/>
</g>
<g id="Group_143">
<path id="Vector_138" d="M136.938 157.194C133.404 158.047 130.081 170.705 130.081 170.705L143.976 179.667C143.976 179.667 148.526 169.639 146.883 165.277C145.186 160.733 141.378 156.12 136.938 157.194Z" fill="#660325"/>
</g>
<g id="Group_144">
<path id="Vector_139" d="M139.695 165.323L138.799 176.345L143.964 179.694C145.367 176.543 146.399 173.246 147.042 169.867L139.695 165.323Z" fill="black"/>
</g>
<g id="Group_145">
<path id="Vector_140" d="M182.005 157.151C182.005 157.151 186.099 158.524 178.21 207.941L143.407 208.212C143.915 194.272 143.875 185.696 136.934 157.256C141.801 156.233 146.737 155.556 151.701 155.233C156.962 154.821 162.244 154.78 167.508 155.11C174.306 155.667 182.005 157.151 182.005 157.151Z" fill="#660325"/>
</g>
<g id="Group_146">
<path id="Vector_141" d="M185.58 165.067C186.379 167.205 187.224 169.504 188.111 171.715C188.997 173.928 189.841 176.204 190.74 178.448L193.455 185.16L194.143 186.838L194.497 187.671L194.665 188.088L194.665 188.152C194.464 187.877 194.201 187.652 193.896 187.494C193.463 187.248 192.975 187.108 192.474 187.086C192.057 187.077 191.643 187.157 191.262 187.321C190.76 187.55 190.761 187.646 190.772 187.636C190.862 187.564 190.942 187.48 191.01 187.388C191.611 186.603 192.13 185.763 192.559 184.878C193.066 183.888 193.552 182.833 194.037 181.767C194.986 179.616 195.857 177.391 196.729 175.144C197.6 172.896 198.427 170.628 199.233 168.338L201.683 161.48L205.896 162.519C205.094 167.413 204.051 172.181 202.791 177.036C202.183 179.453 201.466 181.849 200.65 184.267C200.241 185.483 199.789 186.686 199.272 187.923C198.733 189.266 198.069 190.556 197.286 191.777C196.998 192.188 196.679 192.577 196.332 192.942C195.778 193.537 195.103 194.014 194.352 194.34C193.685 194.626 192.962 194.764 192.235 194.743C191.421 194.719 190.625 194.493 189.925 194.085C189.1 193.588 188.412 192.897 187.925 192.075C187.759 191.797 187.616 191.52 187.516 191.317L187.307 190.911L186.886 190.078L186.046 188.423C184.941 186.202 183.835 183.959 182.871 181.705C181.907 179.45 180.889 177.164 179.936 174.866C178.983 172.569 178.129 170.271 177.316 167.791L185.58 165.067Z" fill="#E4897A"/>
</g>
<g id="Group_147">
<path id="Vector_142" d="M181.995 157.169C186.185 158.112 190.964 170.212 190.964 170.212L178.584 180.697C178.584 180.697 170.455 167.53 172.057 163.154C173.723 158.596 176.526 155.936 181.995 157.169Z" fill="#660224"/>
</g>
<g id="Group_148">
<path id="Vector_143" d="M203.627 157.624L207.975 154.009L211.04 158.627L208.824 162.514C208.824 162.514 205.281 165.757 202.126 164.142C201.087 161.888 201.699 159.227 203.627 157.624Z" fill="#E4897A"/>
</g>
<g id="Group_149">
<path id="Vector_144" d="M215.858 153.967L215.537 155.133L208.631 156.318L207.94 154.018L215.858 153.967Z" fill="#E4897A"/>
</g>
<g id="Group_150">
<path id="Vector_145" d="M177.894 340.12L165.374 332.314L167.59 328.484L181.654 336.825L177.894 340.12Z" fill="#660224"/>
</g>
<g id="Group_151">
<path id="Vector_146" d="M156.749 346.577C155.655 346.455 154.6 346.098 153.663 345.531C153.56 345.497 153.506 345.388 153.541 345.287C153.56 345.231 153.604 345.187 153.661 345.168C153.999 345.058 156.931 344.148 157.787 344.825C157.984 344.983 158.077 345.232 158.031 345.476C158.003 345.868 157.77 346.218 157.415 346.401C157.21 346.512 156.982 346.572 156.749 346.577ZM154.285 345.42C155.654 346.093 156.748 346.331 157.271 346.07C157.502 345.943 157.649 345.706 157.66 345.447C157.659 345.275 157.658 345.201 157.56 345.159C157.099 344.799 155.463 345.09 154.263 345.42L154.285 345.42Z" fill="#253138"/>
</g>
<g id="Group_152">
<path id="Vector_147" d="M153.74 345.603C153.682 345.603 153.626 345.579 153.586 345.539C153.552 345.479 153.552 345.407 153.584 345.347C153.584 345.25 154.281 342.919 155.392 342.384C155.68 342.253 156.01 342.251 156.299 342.377C156.615 342.472 156.824 342.768 156.805 343.092C156.734 344.057 154.743 345.402 153.826 345.635L153.74 345.603ZM155.842 342.659C155.735 342.664 155.631 342.691 155.536 342.738C154.861 343.065 154.31 344.322 154.042 345.086C155 344.681 156.317 343.621 156.357 343.03C156.356 342.934 156.356 342.816 156.104 342.711C156.022 342.668 155.933 342.641 155.841 342.628L155.842 342.659Z" fill="#253138"/>
</g>
<g id="Group_153">
<path id="Vector_148" d="M172.361 351.119C171.126 351.129 169.402 349.59 168.457 348.645C168.408 348.578 168.407 348.487 168.456 348.42C168.499 348.349 168.579 348.307 168.663 348.311C169.099 348.307 172.893 348.835 173.434 349.879C173.551 350.07 173.553 350.308 173.438 350.5C173.277 350.834 172.952 351.063 172.578 351.107L172.361 351.119ZM169.179 348.789C170.563 350.084 171.78 350.803 172.467 350.712C172.711 350.678 172.924 350.528 173.032 350.311C173.082 350.236 173.081 350.139 173.031 350.065C172.744 349.489 170.721 349.012 169.179 348.789Z" fill="#253138"/>
</g>
<g id="Group_154">
<path id="Vector_149" d="M169.299 348.728C169.054 348.737 168.809 348.721 168.567 348.681C168.498 348.671 168.44 348.627 168.413 348.564C168.38 348.5 168.38 348.425 168.412 348.361C168.477 348.285 169.941 346.529 171.338 346.4C171.734 346.367 172.126 346.487 172.432 346.735C172.861 347.095 172.84 347.416 172.733 347.621C172.464 348.35 170.576 348.718 169.299 348.728ZM169.013 348.334C170.237 348.389 172.189 347.978 172.436 347.452C172.436 347.452 172.523 347.28 172.238 347.047C172.008 346.853 171.707 346.763 171.406 346.796C170.466 347.06 169.632 347.601 169.014 348.345L169.013 348.334Z" fill="#253138"/>
</g>
<g id="Group_155">
<path id="Vector_150" d="M154.03 344.451L144.753 341.954C144.422 341.858 144.07 342.022 143.936 342.334L140.854 349.242C140.571 349.934 140.914 350.72 141.618 350.996C141.668 351.015 141.719 351.032 141.77 351.045C145.052 351.854 146.625 352.078 150.706 353.191C153.222 353.857 156.813 355.103 160.281 356.04C163.749 356.977 164.886 353.658 163.539 352.963C157.447 349.862 156.954 347.662 155.279 345.32C154.98 344.895 154.538 344.588 154.03 344.451Z" fill="#E91E63"/>
</g>
<g id="Group_156">
<path id="Vector_151" d="M168.704 347.383L160.763 342.087C160.484 341.891 160.1 341.931 159.868 342.18L154.657 347.75C154.164 348.31 154.226 349.156 154.795 349.639C154.838 349.675 154.884 349.709 154.932 349.74C157.728 351.551 159.174 352.279 162.673 354.62C164.866 356.061 169.112 359.263 172.074 361.255C175.035 363.246 177.214 360.464 176.159 359.379C171.433 354.498 170.387 351.421 169.595 348.63C169.459 348.124 169.142 347.682 168.704 347.383Z" fill="#E91E63"/>
</g>
<g id="Group_157">
<path id="Vector_152" d="M162.229 337.409L147.935 330.571L149.386 326.769L164.654 333.973L162.229 337.409Z" fill="#82042F"/>
</g>
<g id="Group_158">
<path id="Vector_153" d="M142.885 206.273L141.702 209.325C141.583 209.558 141.868 209.8 142.272 209.797L178.397 209.522C178.714 209.52 178.975 209.37 178.995 209.18L179.283 206.156C179.282 205.955 179.03 205.777 178.691 205.779L143.451 206.047C143.236 206.029 143.025 206.113 142.885 206.273Z" fill="#E91E63"/>
</g>
<g id="Group_159">
<path id="Vector_154" d="M142.885 206.273L141.702 209.325C141.583 209.558 141.868 209.8 142.272 209.797L178.396 209.523C178.713 209.52 178.974 209.37 178.995 209.18L179.283 206.156C179.281 205.955 179.029 205.777 178.691 205.779L143.451 206.047C143.236 206.029 143.025 206.113 142.885 206.273Z" fill="#EC769E"/>
</g>
<g id="Group_160">
<path id="Vector_155" d="M148.597 210.058L147.646 210.066C147.461 210.067 147.318 209.972 147.328 209.853L147.753 205.87C147.752 205.763 147.927 205.665 148.112 205.664L149.063 205.657C149.249 205.655 149.391 205.75 149.381 205.857L148.957 209.841C148.947 209.959 148.783 210.057 148.597 210.058Z" fill="#660325"/>
</g>
<g id="Group_161">
<path id="Vector_156" d="M170.874 209.925L169.934 209.932C169.748 209.934 169.606 209.839 169.616 209.72L170.03 205.737C170.029 205.63 170.214 205.532 170.4 205.531L171.34 205.523C171.526 205.522 171.679 205.617 171.658 205.724L171.244 209.707C171.19 209.826 171.07 209.923 170.874 209.925Z" fill="#660325"/>
</g>
<g id="Group_162">
<path id="Vector_157" d="M148.869 387.762C165.026 387.641 178.13 388.455 178.136 389.581C178.143 390.707 165.051 391.719 148.894 391.84C132.737 391.962 119.634 391.146 119.627 390.021C119.62 388.895 132.712 387.884 148.869 387.762Z" fill="#294A83"/>
</g>
<g id="Group_163">
<path id="Vector_158" d="M166.684 386.689C161.494 385.249 155.733 383.394 152.245 381.436C152.146 381.373 152.036 381.341 151.938 381.288L151.802 358.259L162.285 358.178C164.008 358.063 165.314 356.6 165.203 354.909C165.1 353.358 163.831 352.129 162.249 352.05L151.82 352.131L151.2 247.158L144.903 247.207L145.522 352.18L135.104 352.261C133.38 352.174 131.907 353.476 131.815 355.169C131.723 356.861 133.047 358.304 134.771 358.391C134.895 358.397 135.017 358.397 135.14 358.389L145.559 358.308L145.694 381.304C145.596 381.305 145.498 381.392 145.4 381.456C141.881 383.501 136.186 385.445 131.012 386.934C130.205 387.181 129.752 388.023 130.002 388.816C130.198 389.442 130.788 389.87 131.456 389.871L166.276 389.601C167.118 389.538 167.751 388.816 167.689 387.989C167.644 387.399 167.251 386.89 166.684 386.689Z" fill="#5690D4"/>
</g>
<g id="Group_164">
<path id="Vector_159" d="M128.528 236.65L167.363 236.349C170.488 236.324 173.036 238.785 173.054 241.844L173.121 253.147C173.139 256.207 170.621 258.706 167.496 258.73L128.661 259.032C125.536 259.056 122.989 256.596 122.971 253.537L122.904 242.233C122.886 239.174 125.403 236.674 128.528 236.65Z" fill="#5690D4"/>
</g>
<g id="Group_165">
<path id="Vector_160" d="M128.307 259.121L128.318 261.05C128.328 262.639 130.115 263.917 132.299 263.901L163.968 263.659C166.152 263.643 167.924 262.337 167.915 260.748L167.903 258.819L128.307 259.121Z" fill="#E91E63"/>
</g>
<g id="Group_166">
<path id="Vector_161" d="M128.307 259.121L128.318 261.05C128.328 262.639 130.115 263.917 132.299 263.901L163.968 263.659C166.152 263.643 167.924 262.337 167.915 260.748L167.903 258.819L128.307 259.121Z" fill="#194A83"/>
</g>
</g>
</g>
</svg>
