<svg width="22" height="22" viewBox="0 0 22 22" fill="none" xmlns="http://www.w3.org/2000/svg">
<path d="M14.5993 14.4351L13.6142 15.4202C13.5506 15.4866 13.4742 15.5394 13.3895 15.5752C13.3048 15.611 13.2137 15.6292 13.1217 15.6286C12.9364 15.627 12.7594 15.552 12.6292 15.4202L9.84444 12.5976C9.78002 12.5328 9.72902 12.456 9.69434 12.3714C9.65967 12.2869 9.64201 12.1964 9.64237 12.105V5.55683C9.64237 5.37261 9.71555 5.19593 9.84581 5.06567C9.97608 4.93541 10.1528 4.86223 10.337 4.86223H11.7262C11.9099 4.86387 12.0856 4.93758 12.2155 5.06749C12.3454 5.1974 12.4191 5.37312 12.4208 5.55683V10.9558C12.4204 11.0471 12.4381 11.1377 12.4728 11.2222C12.5074 11.3067 12.5584 11.3836 12.6229 11.4483L14.6309 13.4564C14.756 13.5906 14.8228 13.7689 14.8169 13.9523C14.811 14.1356 14.7328 14.3092 14.5993 14.4351ZM11 0C8.82441 0 6.69767 0.645139 4.88873 1.85383C3.07979 3.06253 1.66989 4.78049 0.83733 6.79048C0.00476617 8.80047 -0.213071 11.0122 0.211367 13.146C0.635804 15.2798 1.68345 17.2398 3.22183 18.7782C4.76021 20.3165 6.72022 21.3642 8.85401 21.7886C10.9878 22.2131 13.1995 21.9952 15.2095 21.1627C17.2195 20.3301 18.9375 18.9202 20.1462 17.1113C21.3549 15.3023 22 13.1756 22 11C22 8.08262 20.8411 5.28472 18.7782 3.22182C16.7153 1.15893 13.9174 0 11 0Z" fill="#812590"/>
</svg>
