<svg width="518" height="456" viewBox="0 0 518 456" fill="none" xmlns="http://www.w3.org/2000/svg">
<g opacity="0.5">
<g filter="url(#filter0_d_1204_724)">
<path d="M254.874 172.11C392.228 172.11 503.748 232.579 503.748 307.055C503.748 381.531 392.228 442 254.874 442C117.52 442 6 381.531 6 307.055C6 232.579 117.52 172.11 254.874 172.11Z" fill="#F0F0F0"/>
</g>
<path d="M203.372 321.063C250.737 321.063 289.194 342.611 289.194 369.151C289.194 395.691 250.737 417.239 203.372 417.239C156.007 417.239 117.551 395.691 117.551 369.151C117.551 342.611 156.007 321.063 203.372 321.063Z" fill="#E0E0E0"/>
<path d="M447.429 308.989L437.364 303.35C437.364 303.35 434.9 282.434 436.54 266.235C438.844 243.472 453.992 216.083 472.061 222.516C490.132 228.948 463.776 252.129 457.91 271.436C452.044 290.743 447.429 308.989 447.429 308.989Z" fill="#516C8E"/>
<g opacity="0.15">
<path d="M447.429 308.989L437.364 303.35C437.364 303.35 434.9 282.434 436.54 266.235C438.844 243.472 453.992 216.083 472.061 222.516C490.132 228.948 463.776 252.129 457.91 271.436C452.044 290.743 447.429 308.989 447.429 308.989Z" fill="black"/>
</g>
<path d="M442.136 306.616H442.156C442.493 306.604 442.756 306.331 442.744 306.004C440.977 255.426 466.919 229.984 467.182 229.733C467.422 229.504 467.424 229.13 467.188 228.898C466.949 228.664 466.563 228.662 466.327 228.891C466.059 229.146 439.74 254.954 441.526 306.045C441.538 306.365 441.809 306.616 442.136 306.616Z" fill="white"/>
<path d="M453.754 312.507L446.594 308.494C446.594 308.494 445.376 294.141 452.627 276.704C458.939 261.525 474.602 248.931 482.479 251.578C490.357 254.224 490.161 259.645 486.321 265.332C482.479 271.019 459.113 284.574 453.754 312.507Z" fill="#516C8E"/>
<path d="M449.978 310.981H449.98C450.316 310.979 450.589 310.715 450.586 310.387C450.445 278.408 481.384 256.794 481.698 256.578C481.972 256.391 482.037 256.021 481.843 255.755C481.649 255.49 481.272 255.423 480.994 255.615C480.677 255.832 449.224 277.804 449.369 310.392C449.371 310.717 449.642 310.981 449.978 310.981Z" fill="white"/>
<path d="M74.9298 296.423L84.2215 290.338C84.2215 290.338 88.3121 266.71 84.5109 245.956C79.1676 216.778 58.4341 207.067 51.0341 210.116C43.6351 213.165 42.0535 221.868 55.8585 238.527C64.0041 248.355 74.6448 269.257 74.9298 296.423Z" fill="#516C8E"/>
<g opacity="0.15">
<path d="M74.9298 296.423L84.2215 290.338C84.2215 290.338 88.3121 266.71 84.5109 245.956C79.1676 216.778 58.4341 207.067 51.0341 210.116C43.6351 213.165 42.0535 221.868 55.8585 238.527C64.0041 248.355 74.6448 269.257 74.9298 296.423Z" fill="black"/>
</g>
<path d="M78.1208 284.735C78.0892 284.735 78.0586 284.734 78.0269 284.73C77.6581 284.688 77.3942 284.364 77.4386 284.006C80.7947 256.531 68.8424 226.724 55.8446 214.864C55.574 214.618 55.5607 214.202 55.8162 213.94C56.0707 213.68 56.4963 213.664 56.7679 213.912C70.0024 225.988 82.1803 256.28 78.7747 284.159C78.7347 284.487 78.4503 284.729 78.1208 284.735Z" fill="white"/>
<path d="M50.5899 312.357C49.1154 313.216 44.8043 310.112 43.6115 309.368C41.5687 308.093 39.8981 306.264 38.7709 304.182C37.4598 301.759 37.0903 299.142 37.4314 296.428C37.6087 295.02 37.9859 293.645 38.362 292.275C38.732 290.929 39.1015 289.584 39.4715 288.239C39.8359 286.911 40.2037 285.538 39.9965 284.179C39.5804 281.441 37.0309 279.566 34.7164 277.95C32.1559 276.163 29.4792 273.791 29.4286 270.486C29.3886 267.936 30.7025 265.542 32.2903 263.511C33.8792 261.479 35.7748 259.674 37.2053 257.535C38.2342 255.994 39.0248 254.193 38.8165 252.368C38.6865 251.234 38.1803 250.173 37.6003 249.181C36.3548 247.052 34.7292 245.111 33.8548 242.815C32.9792 240.519 33.0403 237.641 34.8659 235.953C36.3648 234.566 38.6287 234.335 40.697 234.428C42.6104 234.516 44.4937 235.317 46.1826 236.188C51.646 239.004 54.8554 245.159 60.636 247.297C62.8661 248.121 65.2938 248.265 67.6127 248.813C69.9305 249.361 72.305 250.461 73.4144 252.511C75.6011 256.553 71.7939 261.657 73.3606 265.962C74.7467 269.771 78.6134 271.167 80.8384 274.582C81.8112 276.076 82.0639 277.819 81.9467 279.583C81.7489 282.568 81.3423 284.763 79.935 288.106C78.7717 290.868 75.3178 296.173 75.3178 296.173C75.3178 296.173 50.8149 312.225 50.5899 312.357Z" fill="#516C8E"/>
<path d="M64.8705 303.856L64.8522 303.857C64.4711 303.849 64.1766 303.548 64.1839 303.188C64.7794 277.232 51.6193 248.837 42.2976 240.689C42.021 240.448 41.9982 240.035 42.2465 239.766C42.4971 239.499 42.921 239.477 43.1987 239.717C52.7071 248.028 66.1339 276.895 65.5317 303.217C65.5222 303.57 65.2294 303.85 64.8705 303.856Z" fill="white"/>
<path d="M59.9443 272.236C59.8788 272.237 59.8115 272.229 59.7449 272.21C51.1076 269.794 40.3981 269.541 40.2914 269.539C39.9197 269.531 39.6247 269.231 39.632 268.872C39.6414 268.512 39.9164 268.221 40.3209 268.232C40.4297 268.235 51.3093 268.493 60.1176 270.955C60.4749 271.055 60.6815 271.416 60.5782 271.763C60.4938 272.046 60.2315 272.231 59.9443 272.236Z" fill="white"/>
<path d="M308.919 278.582L304.911 276.334C303.649 275.626 302.625 273.903 302.625 272.488L302.624 110.996C302.624 109.581 303.647 107.86 304.911 107.152L416.195 44.7971C417.459 44.0886 419.508 44.0886 420.77 44.796L424.779 47.0423C426.042 47.7497 427.066 49.4712 427.066 50.886V212.378C427.066 213.794 426.042 215.515 424.779 216.223L313.491 278.584C312.229 279.291 310.181 279.29 308.919 278.582Z" fill="#455A64"/>
<path d="M427.047 50.5261C426.888 49.3777 425.927 48.9576 424.776 49.6036L313.496 111.969C312.862 112.328 312.302 112.922 311.879 113.62L303.291 108.811C303.703 108.114 304.273 107.509 304.907 107.15L416.198 44.7952C417.455 44.0878 419.504 44.0878 420.772 44.7952L424.776 47.0403C425.938 47.6863 426.899 49.1933 427.047 50.5261Z" fill="#455A64"/>
<path d="M313.105 278.761C311.837 279.284 310.063 279.223 308.922 278.587L304.907 276.332C303.65 275.624 302.625 273.902 302.625 272.487V110.995C302.625 110.287 302.879 109.508 303.291 108.811L311.879 113.619C311.457 114.317 311.203 115.106 311.203 115.813V277.306C311.203 278.577 312.027 279.161 313.105 278.761Z" fill="#263238"/>
<path d="M311.204 115.811V277.302C311.204 278.717 312.229 279.291 313.491 278.584L424.778 216.223C426.041 215.515 427.065 213.794 427.065 212.379V50.8863C427.065 49.4715 426.041 48.8973 424.778 49.6058L313.491 111.967C312.229 112.674 311.204 114.395 311.204 115.811Z" fill="#37474F"/>
<path d="M285.215 177.368C283.779 176.537 277.113 172.856 276.764 172.662C275.708 172.036 275.328 170.519 276.31 169.494L302.625 142.1L311.203 146.877L284.899 174.282C283.948 175.266 284.254 176.691 285.215 177.368Z" fill="#455A64"/>
<path d="M311.204 146.882L284.895 174.28C283.577 175.652 284.69 177.88 286.617 177.726L311.203 175.761L311.204 146.882Z" fill="#37474F"/>
<path d="M369.133 97.5849C382.103 90.3168 392.618 96.2084 392.618 110.743C392.618 125.278 382.103 142.951 369.133 150.219C356.164 157.487 345.65 151.595 345.65 137.061C345.65 122.526 356.164 104.852 369.133 97.5849Z" fill="#4A64CC"/>
<path d="M368.97 109.023C373.177 106.665 376.589 108.576 376.589 113.291C376.589 118.008 373.177 123.742 368.97 126.1C364.762 128.457 361.351 126.546 361.351 121.83C361.351 117.115 364.762 111.381 368.97 109.023Z" fill="white"/>
<path d="M383.984 134.167C383.984 126.42 378.379 123.279 371.467 127.154L367.146 129.574C360.234 133.448 354.628 142.869 354.628 150.616V152.729C355.876 153.131 357.232 153.33 358.663 153.333C361.816 153.339 365.366 152.332 369.134 150.22C374.769 147.063 379.937 141.939 383.984 135.964V134.167Z" fill="white"/>
<path d="M354.258 222.18L384.013 205.507C385.275 204.8 386.3 205.373 386.3 206.789V216.088C386.3 217.504 385.275 219.226 384.013 219.933L354.258 236.606C352.995 237.313 351.971 236.74 351.971 235.324V226.024C351.971 224.609 352.995 222.887 354.258 222.18Z" fill="#4A64CC"/>
<path d="M339.696 201.404L398.572 168.414C400.088 167.565 401.317 168.253 401.317 169.952V173.413C401.317 175.112 400.088 177.177 398.572 178.027L339.695 211.017C338.18 211.866 336.95 211.178 336.95 209.479V206.018C336.95 204.319 338.18 202.253 339.696 201.404Z" fill="#FAFAFA"/>
<path d="M344.991 183.244L346.53 182.381C346.908 182.169 347.209 181.89 347.436 181.54C347.661 181.191 347.773 180.742 347.773 180.187C347.773 179.632 347.661 179.311 347.436 179.225C347.209 179.139 346.908 179.201 346.53 179.414L344.991 180.276V183.244ZM346.581 177.529C347.382 177.079 348.004 177.012 348.448 177.329C348.892 177.644 349.114 178.347 349.114 179.434C349.114 180.524 348.892 181.478 348.448 182.3C348.004 183.124 347.382 183.759 346.581 184.21L344.991 185.099V188.41C344.991 188.519 344.964 188.628 344.912 188.737C344.859 188.847 344.796 188.92 344.723 188.96L343.919 189.412C343.845 189.454 343.783 189.449 343.729 189.399C343.676 189.349 343.649 189.271 343.649 189.163V179.573C343.649 179.464 343.676 179.354 343.729 179.245C343.783 179.137 343.845 179.061 343.919 179.021L346.581 177.529Z" fill="#FAFAFA"/>
<path d="M354.091 179.837L352.999 176.219L351.905 181.06L354.091 179.837ZM353.545 173.625C353.65 173.567 353.731 173.563 353.784 173.618C353.838 173.672 353.883 173.773 353.923 173.918L356.357 181.937C356.363 181.963 356.366 181.995 356.366 182.035C356.366 182.144 356.34 182.253 356.287 182.362C356.234 182.471 356.171 182.547 356.098 182.586L355.383 182.987C355.251 183.061 355.158 183.071 355.105 183.017C355.051 182.963 355.016 182.901 354.995 182.832L354.568 181.425L351.429 183.185L351.002 185.071C350.982 185.161 350.945 185.264 350.892 185.377C350.839 185.491 350.748 185.584 350.614 185.66L349.899 186.06C349.826 186.1 349.763 186.096 349.71 186.046C349.658 185.998 349.631 185.918 349.631 185.81C349.631 185.77 349.634 185.734 349.641 185.7L352.075 174.954C352.115 174.763 352.161 174.611 352.214 174.497C352.266 174.384 352.346 174.297 352.453 174.238L353.545 173.625Z" fill="#FAFAFA"/>
<path d="M360.063 169.825C360.507 169.577 360.897 169.447 361.234 169.436C361.573 169.425 361.853 169.49 362.079 169.631C362.304 169.773 362.474 169.972 362.592 170.228C362.707 170.484 362.772 170.753 362.785 171.032C362.791 171.147 362.767 171.257 362.711 171.363C362.654 171.468 362.589 171.541 362.517 171.582L361.821 171.972C361.708 172.036 361.626 172.05 361.568 172.018C361.512 171.986 361.459 171.928 361.413 171.846C361.314 171.654 361.164 171.522 360.963 171.452C360.759 171.384 360.46 171.458 360.063 171.682C359.891 171.779 359.727 171.898 359.572 172.038C359.416 172.18 359.279 172.335 359.165 172.505C359.048 172.673 358.957 172.851 358.891 173.035C358.824 173.222 358.792 173.408 358.792 173.596C358.792 173.825 358.823 173.992 358.886 174.1C358.948 174.209 359.054 174.273 359.204 174.293C359.352 174.314 359.551 174.299 359.794 174.251C360.039 174.203 360.345 174.136 360.708 174.05C361.106 173.957 361.449 173.916 361.737 173.928C362.026 173.941 362.259 174.016 362.442 174.156C362.624 174.297 362.759 174.5 362.849 174.767C362.939 175.033 362.984 175.369 362.984 175.774C362.984 176.22 362.917 176.67 362.785 177.126C362.653 177.581 362.463 178.014 362.219 178.423C361.974 178.832 361.673 179.216 361.314 179.575C360.957 179.934 360.556 180.238 360.112 180.487C359.741 180.695 359.387 180.827 359.049 180.881C358.712 180.937 358.413 180.913 358.151 180.806C357.888 180.701 357.678 180.514 357.519 180.247C357.361 179.98 357.272 179.634 357.252 179.21C357.244 179.094 357.271 178.985 357.326 178.878C357.382 178.773 357.446 178.699 357.519 178.658L358.215 178.27C358.328 178.205 358.413 178.187 358.473 178.214C358.533 178.239 358.583 178.3 358.623 178.396C358.669 178.499 358.724 178.597 358.792 178.688C358.858 178.779 358.947 178.843 359.059 178.879C359.172 178.915 359.313 178.917 359.482 178.888C359.651 178.857 359.861 178.772 360.112 178.63C360.311 178.52 360.503 178.39 360.689 178.24C360.874 178.093 361.037 177.927 361.176 177.745C361.314 177.563 361.427 177.372 361.513 177.17C361.599 176.968 361.642 176.753 361.642 176.525C361.642 176.31 361.596 176.157 361.504 176.07C361.411 175.982 361.27 175.944 361.081 175.951C360.892 175.957 360.659 175.994 360.381 176.061C360.103 176.128 359.781 176.194 359.417 176.26C359.086 176.326 358.796 176.348 358.547 176.323C358.298 176.3 358.094 176.213 357.932 176.067C357.769 175.921 357.649 175.709 357.57 175.431C357.491 175.153 357.451 174.794 357.451 174.347C357.451 173.903 357.517 173.453 357.649 173.005C357.781 172.554 357.964 172.13 358.196 171.734C358.426 171.336 358.703 170.971 359.026 170.638C359.346 170.304 359.693 170.033 360.063 169.825Z" fill="#FAFAFA"/>
<path d="M366.997 165.941C367.441 165.693 367.831 165.563 368.168 165.551C368.506 165.541 368.788 165.605 369.014 165.746C369.238 165.887 369.409 166.087 369.525 166.343C369.641 166.6 369.706 166.868 369.719 167.147C369.725 167.263 369.702 167.373 369.644 167.478C369.588 167.584 369.523 167.657 369.451 167.697L368.755 168.088C368.642 168.15 368.558 168.166 368.501 168.134C368.446 168.101 368.394 168.042 368.348 167.96C368.247 167.768 368.099 167.636 367.896 167.567C367.694 167.498 367.394 167.573 366.997 167.796C366.823 167.893 366.661 168.013 366.506 168.153C366.348 168.296 366.213 168.451 366.098 168.62C365.982 168.789 365.891 168.965 365.824 169.151C365.759 169.336 365.725 169.523 365.725 169.712C365.725 169.94 365.757 170.107 365.819 170.215C365.882 170.325 365.987 170.388 366.137 170.409C366.287 170.428 366.483 170.415 366.728 170.367C366.973 170.319 367.278 170.252 367.642 170.166C368.041 170.072 368.382 170.031 368.67 170.043C368.958 170.055 369.194 170.13 369.375 170.271C369.558 170.412 369.694 170.615 369.783 170.882C369.873 171.149 369.917 171.484 369.917 171.89C369.917 172.334 369.852 172.785 369.719 173.242C369.587 173.697 369.397 174.128 369.153 174.537C368.908 174.948 368.607 175.331 368.248 175.691C367.891 176.05 367.489 176.352 367.047 176.601C366.675 176.809 366.321 176.941 365.984 176.996C365.646 177.053 365.346 177.028 365.085 176.921C364.823 176.816 364.613 176.63 364.453 176.361C364.295 176.095 364.205 175.749 364.185 175.325C364.179 175.209 364.204 175.1 364.261 174.994C364.315 174.888 364.381 174.814 364.453 174.773L365.149 174.385C365.261 174.321 365.347 174.302 365.407 174.33C365.467 174.355 365.516 174.415 365.556 174.512C365.603 174.614 365.659 174.712 365.725 174.804C365.792 174.894 365.881 174.958 365.993 174.994C366.106 175.03 366.248 175.032 366.416 175.003C366.585 174.972 366.794 174.887 367.047 174.746C367.245 174.635 367.437 174.506 367.622 174.355C367.807 174.208 367.97 174.043 368.109 173.861C368.248 173.678 368.362 173.488 368.448 173.285C368.534 173.084 368.576 172.87 368.576 172.641C368.576 172.424 368.529 172.272 368.438 172.185C368.345 172.099 368.203 172.059 368.014 172.066C367.827 172.073 367.593 172.108 367.314 172.175C367.037 172.243 366.715 172.308 366.351 172.375C366.021 172.441 365.729 172.463 365.481 172.439C365.234 172.414 365.027 172.329 364.866 172.183C364.703 172.036 364.582 171.825 364.503 171.546C364.423 171.27 364.384 170.908 364.384 170.462C364.384 170.018 364.45 169.569 364.582 169.12C364.714 168.669 364.897 168.246 365.129 167.849C365.361 167.451 365.636 167.086 365.958 166.753C366.281 166.42 366.626 166.149 366.997 165.941Z" fill="#FAFAFA"/>
<path d="M374.697 167.222L373.842 172.14C373.809 172.306 373.767 172.451 373.717 172.572C373.668 172.694 373.594 172.783 373.495 172.839L372.688 173.29C372.589 173.345 372.511 173.343 372.456 173.278C372.399 173.217 372.362 173.117 372.342 172.98L371.069 164.326C371.063 164.28 371.06 164.242 371.06 164.213C371.06 164.104 371.087 163.995 371.139 163.885C371.192 163.777 371.255 163.701 371.328 163.662L372.062 163.248C372.129 163.212 372.193 163.207 372.252 163.233C372.312 163.259 372.352 163.34 372.371 163.478L373.205 169.305L373.941 164.929C373.954 164.852 373.986 164.744 374.036 164.608C374.084 164.472 374.17 164.371 374.289 164.304L375.102 163.846C375.223 163.78 375.307 163.788 375.357 163.869C375.406 163.949 375.437 164.021 375.45 164.082L376.186 167.635L377.021 160.873C377.04 160.713 377.08 160.587 377.14 160.494C377.2 160.402 377.262 160.335 377.329 160.299L378.064 159.887C378.136 159.847 378.2 159.851 378.252 159.901C378.305 159.949 378.332 160.029 378.332 160.138C378.332 160.167 378.329 160.209 378.322 160.261L377.05 170.341C377.03 170.502 376.992 170.643 376.937 170.768C376.88 170.893 376.803 170.985 376.703 171.041L375.898 171.491C375.797 171.548 375.723 171.543 375.674 171.477C375.626 171.409 375.583 171.312 375.549 171.183L374.697 167.222Z" fill="#FAFAFA"/>
<path d="M384.145 160.429C384.118 159.731 383.965 159.266 383.683 159.032C383.402 158.799 383.029 158.812 382.566 159.072C382.101 159.332 381.729 159.737 381.447 160.286C381.166 160.835 381.011 161.471 380.986 162.199C380.972 162.583 380.964 163.005 380.964 163.465C380.964 163.926 380.972 164.339 380.986 164.708C381.011 165.406 381.166 165.868 381.447 166.097C381.729 166.325 382.101 166.309 382.566 166.05C383.029 165.791 383.402 165.388 383.683 164.846C383.965 164.301 384.118 163.666 384.145 162.938C384.159 162.555 384.164 162.132 384.164 161.672C384.164 161.211 384.159 160.798 384.145 160.429ZM379.644 162.877C379.665 162.312 379.734 161.749 379.857 161.19C379.981 160.633 380.161 160.106 380.399 159.611C380.638 159.116 380.936 158.662 381.293 158.249C381.652 157.835 382.075 157.493 382.566 157.217C383.049 156.946 383.469 156.815 383.826 156.822C384.184 156.83 384.482 156.95 384.721 157.182C384.959 157.415 385.141 157.739 385.266 158.153C385.393 158.568 385.466 159.049 385.486 159.603C385.492 159.788 385.497 159.993 385.501 160.218C385.504 160.444 385.506 160.678 385.506 160.921C385.506 161.163 385.504 161.399 385.501 161.628C385.497 161.859 385.492 162.069 385.486 162.26C385.466 162.826 385.395 163.388 385.272 163.946C385.149 164.505 384.969 165.032 384.732 165.526C384.493 166.02 384.193 166.473 383.833 166.884C383.471 167.294 383.049 167.635 382.566 167.905C382.075 168.18 381.652 168.314 381.293 168.307C380.936 168.298 380.638 168.181 380.399 167.953C380.161 167.726 379.981 167.402 379.857 166.98C379.734 166.559 379.665 166.076 379.644 165.534C379.638 165.35 379.633 165.146 379.629 164.918C379.626 164.693 379.625 164.459 379.625 164.217C379.625 163.974 379.626 163.738 379.629 163.508C379.633 163.279 379.638 163.069 379.644 162.877Z" fill="#FAFAFA"/>
<path d="M388.635 158.641L390.075 157.834C390.454 157.623 390.754 157.354 390.98 157.03C391.205 156.706 391.317 156.267 391.317 155.712C391.317 155.159 391.205 154.85 390.98 154.788C390.754 154.727 390.454 154.801 390.075 155.014L388.635 155.82V158.641ZM390.125 153.129C390.952 152.666 391.581 152.601 392.012 152.933C392.442 153.267 392.659 153.942 392.659 154.961C392.659 155.684 392.547 156.362 392.326 156.996C392.103 157.63 391.776 158.192 391.346 158.679L392.717 161.578C392.737 161.626 392.747 161.676 392.747 161.726C392.747 161.814 392.726 161.902 392.682 161.992C392.64 162.081 392.588 162.14 392.529 162.174L391.684 162.646C391.552 162.721 391.454 162.728 391.391 162.671C391.329 162.611 391.284 162.551 391.256 162.487L389.956 159.755L388.635 160.497V163.955C388.635 164.064 388.607 164.173 388.555 164.28C388.501 164.391 388.439 164.465 388.366 164.507L387.561 164.957C387.489 164.997 387.426 164.993 387.373 164.944C387.319 164.895 387.293 164.816 387.293 164.707V155.118C387.293 155.009 387.319 154.9 387.373 154.791C387.426 154.681 387.489 154.607 387.561 154.564L390.125 153.129Z" fill="#FAFAFA"/>
<path d="M398.798 152.367C398.784 152.058 398.743 151.786 398.675 151.553C398.604 151.321 398.502 151.14 398.366 151.014C398.23 150.887 398.06 150.825 397.855 150.825C397.648 150.827 397.403 150.906 397.12 151.067L395.788 151.812V158.492L397.169 157.72C397.441 157.567 397.676 157.379 397.875 157.152C398.073 156.928 398.238 156.68 398.371 156.406C398.503 156.134 398.604 155.842 398.675 155.525C398.743 155.209 398.784 154.888 398.798 154.565C398.823 153.816 398.823 153.085 398.798 152.367ZM397.169 149.182C397.659 148.908 398.084 148.766 398.445 148.757C398.806 148.749 399.108 148.853 399.35 149.074C399.591 149.295 399.776 149.621 399.906 150.054C400.035 150.486 400.112 151.007 400.14 151.616C400.166 152.333 400.166 153.066 400.14 153.812C400.112 154.451 400.035 155.059 399.906 155.635C399.776 156.213 399.593 156.746 399.355 157.236C399.116 157.727 398.82 158.167 398.465 158.558C398.111 158.95 397.696 159.279 397.219 159.546L394.715 160.949C394.641 160.99 394.58 160.986 394.526 160.936C394.473 160.887 394.447 160.808 394.447 160.698V151.109C394.447 151.001 394.473 150.89 394.526 150.782C394.58 150.674 394.641 150.598 394.715 150.557L397.169 149.182Z" fill="#FAFAFA"/>
<g opacity="0.819791">
<path d="M247.051 33.3692C247.482 33.4614 247.82 33.6943 248.064 34.0663C248.309 34.4395 248.382 34.8341 248.287 35.2536L247.14 40.2852C247.044 40.7058 246.804 41.0341 246.42 41.2708C246.037 41.5086 245.63 41.5803 245.198 41.4881L240.131 40.399C239.698 40.3046 239.359 40.0744 239.115 39.7002C238.869 39.3282 238.795 38.9335 238.891 38.5129L240.04 33.4808C240.136 33.0624 240.375 32.7346 240.758 32.4957C241.144 32.2601 241.55 32.1862 241.983 32.2795L247.051 33.3692ZM252.104 0.385025C253.95 0.781859 255.69 1.41701 257.324 2.28724C258.959 3.15855 260.344 4.22558 261.476 5.48888C262.61 6.75217 263.426 8.18638 263.924 9.79475C264.423 11.4004 264.459 13.1382 264.033 15.0054C263.685 16.5307 263.137 17.8031 262.39 18.8211C261.641 19.8402 260.784 20.7158 259.814 21.4469C258.844 22.178 257.82 22.8186 256.748 23.3669C255.675 23.9163 254.659 24.4383 253.702 24.9305C252.744 25.4255 251.879 25.9701 251.105 26.5626C250.331 27.1563 249.79 27.8604 249.48 28.6724C249.305 29.0752 249.046 29.3987 248.703 29.6446C248.357 29.8915 247.97 29.9664 247.539 29.8742L243.06 28.9113C242.627 28.8191 242.279 28.5856 242.016 28.2071C241.752 27.8308 241.686 27.4377 241.821 27.0268C242.24 25.5576 242.861 24.3207 243.687 23.3189C244.514 22.3171 245.43 21.4539 246.44 20.7309C247.45 20.0078 248.5 19.3846 249.588 18.8589C250.675 18.3332 251.689 17.8215 252.627 17.3222C253.565 16.8251 254.364 16.2961 255.026 15.7392C255.69 15.1822 256.114 14.5028 256.295 13.7022C256.626 12.2545 256.27 10.9276 255.226 9.72303C254.182 8.51959 252.619 7.69411 250.537 7.24605C247.199 6.52841 244.374 7.62132 242.065 10.5237C241.772 10.9022 241.494 11.1707 241.232 11.3336C240.967 11.4985 240.579 11.5244 240.068 11.415L235.297 10.3895C234.945 10.3124 234.665 10.1333 234.463 9.8492C234.259 9.56613 234.202 9.234 234.287 8.8528C234.631 7.52697 235.365 6.25451 236.488 5.03651C237.609 3.81743 238.978 2.79245 240.588 1.95888C242.201 1.12639 244.003 0.543004 245.994 0.211949C247.985 -0.119106 250.021 -0.0630312 252.104 0.385025Z" fill="#4A64CC"/>
</g>
<g opacity="0.403103">
<path d="M263.203 70.8799C263.504 70.833 263.782 70.8972 264.039 71.0746C264.293 71.2541 264.444 71.4892 264.494 71.7804L265.085 75.2926C265.135 75.5848 265.068 75.8555 264.884 76.1024C264.701 76.3504 264.458 76.4976 264.157 76.5456L260.621 77.1063C260.32 77.1543 260.041 77.0896 259.786 76.9112C259.531 76.7338 259.379 76.4982 259.33 76.2059L258.739 72.6937C258.69 72.4026 258.756 72.1319 258.94 71.8839C259.123 71.6369 259.366 71.4876 259.668 71.4396L263.203 70.8799ZM257.744 48.4798C259.03 48.276 260.314 48.248 261.592 48.4016C262.869 48.5531 264.039 48.8928 265.099 49.4207C266.159 49.9496 267.06 50.6673 267.803 51.5736C268.548 52.48 269.028 53.5853 269.248 54.8874C269.426 55.9517 269.412 56.905 269.2 57.7423C268.99 58.5808 268.67 59.3561 268.241 60.0667C267.812 60.7752 267.326 61.4406 266.782 62.059C266.24 62.678 265.726 63.2635 265.243 63.8183C264.759 64.3731 264.348 64.9377 264.008 65.5097C263.668 66.0818 263.507 66.6668 263.523 67.2647C263.518 67.5672 263.436 67.839 263.281 68.0821C263.124 68.3253 262.896 68.4709 262.595 68.5189L259.47 69.0138C259.168 69.0618 258.884 68.9987 258.614 68.8224C258.346 68.6472 258.2 68.41 258.179 68.1129C258.058 67.0669 258.131 66.1211 258.398 65.273C258.661 64.426 259.023 63.6436 259.479 62.9303C259.935 62.2159 260.444 61.5554 261.004 60.9472C261.563 60.3401 262.076 59.7605 262.547 59.2067C263.016 58.6562 263.389 58.1176 263.668 57.5968C263.946 57.0738 264.039 56.5335 263.945 55.9738C263.775 54.965 263.196 54.2037 262.208 53.6899C261.221 53.1771 260.001 53.0359 258.549 53.2666C256.219 53.636 254.697 55.0378 253.981 57.4727C253.893 57.7865 253.788 58.0286 253.66 58.199C253.534 58.3705 253.293 58.4837 252.937 58.5392L249.609 59.0682C249.36 59.107 249.134 59.0606 248.929 58.9296C248.724 58.7975 248.6 58.5996 248.554 58.3333C248.424 57.3994 248.559 56.4014 248.959 55.3403C249.356 54.2803 249.963 53.2828 250.776 52.3489C251.589 51.414 252.592 50.5934 253.78 49.886C254.971 49.1775 256.291 48.7095 257.744 48.4798Z" fill="#4A64CC"/>
</g>
<g opacity="0.66704">
<path d="M302.247 30.7139C303.507 31.5815 304.611 32.5984 305.555 33.7598C306.501 34.9211 307.195 36.1526 307.632 37.4547C308.071 38.7579 308.215 40.0897 308.063 41.4544C307.912 42.8201 307.369 44.1405 306.434 45.4157C305.673 46.4563 304.842 47.2457 303.945 47.7811C303.048 48.3192 302.114 48.7117 301.143 48.9629C300.171 49.2142 299.191 49.3803 298.203 49.4633C297.213 49.5442 296.277 49.6229 295.394 49.6989C294.511 49.7749 293.68 49.9173 292.903 50.1254C292.125 50.3335 291.485 50.6969 290.986 51.2135C290.722 51.4626 290.42 51.6259 290.08 51.7047C289.74 51.7845 289.424 51.7208 289.129 51.5181L286.07 49.4078C285.775 49.205 285.59 48.9209 285.515 48.5548C285.439 48.1898 285.519 47.8733 285.755 47.6048C286.554 46.6267 287.427 45.8886 288.38 45.3882C289.33 44.89 290.304 44.5239 291.302 44.2899C292.3 44.057 293.295 43.9114 294.288 43.8521C295.28 43.7928 296.211 43.7189 297.082 43.6337C297.951 43.5485 298.727 43.3986 299.41 43.1835C300.091 42.9684 300.634 42.5877 301.034 42.0415C301.759 41.0521 301.925 39.9441 301.534 38.7126C301.143 37.4833 300.236 36.3785 298.816 35.3983C296.535 33.8255 294.048 33.7749 291.355 35.2474C291.011 35.4409 290.714 35.559 290.462 35.6C290.209 35.6409 289.91 35.5428 289.561 35.3018L286.302 33.0534C286.06 32.8874 285.91 32.6658 285.85 32.3892C285.79 32.1126 285.856 31.8446 286.046 31.5842C286.739 30.6913 287.709 29.9591 288.955 29.3892C290.201 28.8182 291.567 28.4677 293.055 28.3383C294.542 28.2089 296.09 28.327 297.7 28.6931C299.309 29.0592 300.825 29.7326 302.247 30.7139ZM287.612 53.9989C287.907 54.2027 288.086 54.4814 288.149 54.8384C288.21 55.1953 288.136 55.5161 287.927 55.8024L285.411 59.238C285.201 59.5249 284.912 59.6985 284.546 59.7578C284.178 59.8182 283.847 59.7459 283.552 59.5432L280.093 57.1568C279.797 56.9519 279.62 56.6737 279.557 56.3168C279.495 55.9598 279.57 55.6396 279.78 55.3533L282.296 51.9166C282.505 51.6302 282.792 51.4572 283.161 51.3979C283.527 51.3375 283.857 51.4081 284.154 51.6119L287.612 53.9989Z" fill="#4A64CC"/>
</g>
<path d="M208.948 144.755H171.418V56.4979C171.418 40.5382 184.75 27.5996 201.195 27.5996H204.663C221.108 27.5996 234.44 40.5382 234.44 56.4979V120.017C234.44 133.68 223.027 144.755 208.948 144.755Z" fill="#263238"/>
<path d="M167.77 357.214C167.462 359.43 166.805 362.018 166.683 368.291C166.55 375.014 165.278 377.401 165.11 382.919C164.918 389.225 166.039 391.584 168.676 395.128C171.312 398.672 178.231 401.887 181.156 395.897C184.116 389.834 183.704 385.982 182.769 379.797C181.802 373.402 181.679 369.87 181.119 364.993C180.626 360.694 180.034 357.429 180.034 357.429L167.77 357.214Z" fill="#263238"/>
<path d="M187.437 312.544L164.614 312.143C164.953 326.928 167.375 343.34 167.77 357.213C167.844 359.825 167.702 377.505 168.717 382.878C170.242 390.951 180.116 389.861 180.639 385.03C181.164 380.199 180.004 359.557 180.034 357.429C179.948 348.532 184.244 333.513 186.497 317.542C186.608 316.756 187.332 313.309 187.437 312.544Z" fill="#FFA8A7"/>
<path d="M216.753 345.707C216.753 345.707 215.853 345.238 215.667 346.171C215.446 347.281 215.116 349.569 214.641 351.392C213.981 353.926 213.431 358.098 213.827 360.162C214.222 362.226 219.181 364.884 222.401 365.843C227.151 367.258 230.409 369.57 233.011 371.946C236.2 374.858 243.08 377.61 247.765 377.577C253.309 377.538 257.174 375.785 259 372.904C260.908 369.895 257.336 369.674 251 365.684C249.561 364.778 247.923 363.754 246.081 362.585C236.043 356.221 232.368 352.811 229.529 346.447L216.753 345.707Z" fill="#263238"/>
<path d="M229.608 341.767C229.439 337.189 232.674 298.353 232.674 298.353L211 307.942C215.641 334.828 216.63 341.166 216.712 345.566C216.676 345.668 216.584 346.041 216.59 346.691C216.61 351.915 222.683 354.733 227.421 358.214C229.293 359.589 234.735 363.651 240.236 366.333C243.677 368.013 250.669 368.165 251.535 366.015C245.769 361.743 237.384 355.347 232.798 350.468C230.608 348.138 229.777 346.346 229.608 341.767Z" fill="#FFA8A7"/>
<path d="M173.966 168.28C165.646 186.014 165.646 199.728 167.021 222.355C168.282 243.111 170.294 261.383 170.294 261.383C169.972 265.067 164.698 272.253 164.016 288.529C163.378 303.745 165.095 323.088 165.095 323.088C165.095 323.088 176.935 329.458 185.69 323.033C185.69 323.033 194.139 283.882 196.615 264.833C198.775 248.211 202.529 226.972 202.529 226.972L210.481 264.745C210.481 264.745 207.457 274.057 206.749 281.15C205.631 292.354 212.086 314.354 212.086 314.354C212.086 314.354 224.321 317.897 231.792 311.466C231.792 311.466 234.586 275.698 235.629 262.202C237.025 244.129 234.09 195.201 231.791 169.299L173.966 168.28Z" fill="#2F4189"/>
<path d="M202.529 226.973L205.817 198.541C205.817 198.541 220.543 196.631 227.214 190.544C227.214 190.544 222.201 199.458 209.862 201.188L205.109 227.644L210.482 264.744L202.529 226.973Z" fill="#263238"/>
<path d="M262.159 161.294C263.076 152.58 263.042 146.774 262.962 145.657C262.64 141.145 261.809 140.411 255.31 132.416C246.534 121.622 239.045 111.922 231.125 102.27C225.469 95.3796 219.525 94.3184 213.719 94.6312C209.66 94.8485 217.58 113.785 221.569 124.988L244.336 148.755C245.036 149.693 245.359 150.847 245.241 152.001L243.844 172.232L250.66 181.083C250.66 181.083 260.985 172.445 262.159 161.294Z" fill="#FFA8A7"/>
<path d="M191.788 95.2445C187.386 95.5389 179.377 96.2226 179.377 96.2226C174.757 98.7254 173.589 100.776 172.729 106.733C172.364 109.267 174.492 116.027 176.319 125.631L179.787 143.444L179.411 152.277C177.61 157.667 173.539 164.367 169.952 174.242C187.589 183.795 202.382 184.148 215.797 182.477C226.027 181.203 231.44 178.8 233.245 176.428C232.869 166.671 232.158 160.647 231.983 150.455C231.91 146.174 232.175 141.856 232.346 136.928C239.21 131.457 239.288 122.356 235.544 116.475C226.846 102.809 218.391 94.2055 212.79 94.6466L191.788 95.2445Z" fill="#4A64CC"/>
<g opacity="0.1">
<path d="M218.694 137.074C218.694 137.074 210.639 143.142 201.446 139.977C192.252 136.813 190.91 129.013 190.91 129.013C190.91 129.013 189.935 139.213 201.532 142.692C212.723 146.048 218.694 137.074 218.694 137.074Z" fill="black"/>
</g>
<path d="M229.617 67.2462C229.271 82.0477 224.321 85.7065 221.84 86.7574C219.359 87.8083 214.571 87.1672 209.925 86.4209V95.3039C209.925 95.3039 215.287 100.76 214.886 104.828C214.474 108.907 206.458 109.36 200.435 105.376C196.04 102.469 192.9 99.1488 191.531 97.5728C191.032 96.9985 190.762 96.2787 190.762 95.5282V74.6259C190.762 74.6259 188.218 77.2431 183.711 74.2474C179.216 71.262 178.826 65.6896 181.577 62.5359C183.538 60.2967 188.52 60.1388 190.914 63.6186C192.257 66.1738 192.441 68.7386 193.947 67.6765C197.965 64.8695 195.81 58.4883 200.663 55.3347C200.674 55.3347 200.674 55.3244 200.685 55.3244C202.137 54.568 203.782 53.8519 205.624 53.2319C214.279 50.3306 221.774 47.8919 223.584 42.1523C226.996 44.1176 230.04 49.7844 229.617 67.2462Z" fill="#FFA8A7"/>
<path d="M212.559 76.2319C213.864 76.2319 214.924 77.2606 214.924 78.5275C214.924 79.7945 213.864 80.8231 212.559 80.8231C211.253 80.8231 210.193 79.7945 210.193 78.5275C210.193 77.2606 211.253 76.2319 212.559 76.2319Z" fill="#B16668"/>
<path d="M211.219 65.0017C211.28 66.1755 210.385 67.1702 209.222 67.2236C208.058 67.277 207.066 66.3696 207.005 65.1968C206.945 64.0231 207.839 63.0283 209.003 62.9749C210.166 62.9215 211.159 63.829 211.219 65.0017Z" fill="#263238"/>
<path d="M227.228 65.2038C227.284 66.2709 226.471 67.1756 225.412 67.2236C224.249 67.277 223.459 66.5528 223.398 65.3801C223.342 64.3136 224.156 63.4094 225.213 63.3615C226.271 63.3124 227.173 64.1373 227.228 65.2038Z" fill="#263238"/>
<path d="M208.506 60.1226C204.341 60.1226 202.719 61.0985 202.719 63.6052C202.719 66.7022 205.315 69.2218 208.506 69.2218C211.697 69.2218 214.294 66.7022 214.294 63.6052C214.294 61.0985 212.671 60.1226 208.506 60.1226ZM208.506 70.2726C204.718 70.2726 201.636 67.2818 201.636 63.6052C201.636 59.0718 206.45 59.0718 208.506 59.0718C210.563 59.0718 215.377 59.0718 215.377 63.6052C215.377 67.2818 212.295 70.2726 208.506 70.2726Z" fill="#455A64"/>
<path d="M225.948 60.1226C221.783 60.1226 220.16 61.0985 220.16 63.6052C220.16 66.7022 222.757 69.2218 225.948 69.2218C229.139 69.2218 231.735 66.7022 231.735 63.6052C231.735 61.0985 230.113 60.1226 225.948 60.1226ZM225.948 70.2726C222.16 70.2726 219.078 67.2818 219.078 63.6052C219.078 59.0718 223.892 59.0718 225.948 59.0718C228.004 59.0718 232.819 59.0718 232.819 63.6052C232.819 67.2818 229.737 70.2726 225.948 70.2726Z" fill="#455A64"/>
<path d="M216.443 61.4556L216.782 73.9073L223.535 71.8773L216.443 61.4556Z" fill="#F28F8F"/>
<path d="M209.92 86.418C205.015 85.7936 194.924 82.9802 193.352 79.1089C193.352 79.1089 193.875 81.5417 196.89 84.0494C199.904 86.556 209.92 89.3808 209.92 89.3808V86.418Z" fill="#F28F8F"/>
<path d="M210.153 54.7208L205.679 57.3676C204.946 56.1178 205.353 54.5127 206.59 53.7815C207.825 53.0504 209.421 53.471 210.153 54.7208Z" fill="#263238"/>
<path d="M228.381 56.644L223.395 54.9537C223.828 53.5901 225.294 52.8622 226.672 53.3286C228.048 53.795 228.813 55.2793 228.381 56.644Z" fill="#263238"/>
<path d="M214.834 64.1348C214.535 64.1348 214.293 63.8948 214.293 63.6048C214.293 62.7507 216.032 62.2002 217.592 62.2002C219.152 62.2002 220.16 62.7507 220.16 63.6048C220.16 63.8948 219.918 64.1299 219.619 64.1299C219.319 64.1299 219.077 63.8948 219.077 63.6048C219.029 63.5082 218.529 63.2511 217.592 63.2511C216.655 63.2511 215.425 63.5082 215.375 63.6139C215.375 63.904 215.133 64.1348 214.834 64.1348Z" fill="#455A64"/>
<path d="M202.195 63.6915C202.175 63.6915 202.155 63.6909 202.134 63.6888L190.058 62.6201C189.841 62.4255 189.27 61.8534 188.08 61.3735L202.254 62.6428C202.551 62.6746 202.766 62.9361 202.732 63.224C202.701 63.4925 202.467 63.6915 202.195 63.6915Z" fill="#455A64"/>
<path d="M203.933 30.8236C203.654 29.2387 202.445 29.1145 199.523 28.2956C196.601 27.4767 192.246 27.548 192.246 27.548C192.246 27.548 182.989 28.7817 177.803 30.2629C172.617 31.7442 171.502 33.4734 171.502 33.4734L168.802 37.3461L163.529 41.9314L130.207 66.3173C130.207 66.3173 126.541 69.3811 125.734 71.9837C124.928 74.5863 128.472 79.3453 128.472 79.3453C128.472 79.3453 131.781 84.3082 135.781 85.4817C139.781 86.6553 146.601 79.4987 152.602 74.2555L171.366 54.5769C171.366 54.5769 171.795 53.5834 173.193 52.8117C174.592 52.0401 174.954 52.2492 176.761 51.1834C178.568 50.1177 180.421 48.5493 180.421 48.5493C180.421 48.5493 182.196 45.6497 187.522 42.199C192.848 38.7482 201.725 34.7469 201.725 34.7469C201.725 34.7469 204.211 32.4085 203.933 30.8236Z" fill="#FFA8A7"/>
<path d="M130.309 72.7038C126.769 74.3846 126.304 75.7302 127.51 78.311C128.716 80.8918 131.702 84.3304 131.702 84.3304L150.127 100.648L169.948 116.922C169.948 116.922 172.28 118.507 173.754 120.646C175.228 122.785 176.064 125.25 176.064 125.25C176.064 125.25 181.001 127.204 184.283 121.445C187.566 115.685 186.234 110.854 186.168 109.964C186.102 109.075 183.485 98.4866 180.52 95.8989C177.555 93.3112 153.382 75.1866 153.382 75.1866C153.382 75.1866 147.017 71.6436 140.391 71.3489C133.766 71.0541 133.849 71.0229 130.309 72.7038Z" fill="#FFA8A7"/>
<path d="M260.009 150.596L260.036 150.597L258.682 149.464V149.482C258.377 149.244 257.902 149.169 257.29 149.331L242.622 153.203C241.262 153.561 239.787 154.899 239.326 156.192L228.769 185.748C228.526 186.434 228.623 186.961 228.964 187.258L228.952 187.262L230.349 188.43V188.412C230.653 188.658 231.133 188.737 231.754 188.573L246.422 184.702C247.781 184.343 249.257 183.004 249.718 181.713C251.792 175.903 258.201 157.964 260.274 152.156C260.534 151.427 260.405 150.88 260.009 150.596Z" fill="#455A64"/>
<path d="M230.129 186.884L240.684 157.328C241.144 156.036 242.62 154.697 243.98 154.338L258.648 150.467C260.007 150.108 260.735 150.865 260.274 152.156C258.201 157.966 251.792 175.904 249.719 181.713C249.258 183.005 247.781 184.344 246.422 184.703L231.754 188.574C230.395 188.933 229.667 188.176 230.129 186.884Z" fill="#2F4189"/>
<path d="M242.384 155.159C241.619 155.745 240.964 156.551 240.683 157.331L230.123 186.878C229.894 187.541 229.963 188.061 230.27 188.36L228.957 187.269L228.97 187.255C228.622 186.956 228.528 186.436 228.769 185.747L239.328 156.187C239.583 155.459 240.186 154.716 240.897 154.132L242.384 155.159Z" fill="#37474F"/>
<path d="M255.98 164.065C254.946 167.076 251.259 169.085 245.201 170.477C239.142 171.87 235.786 178.114 236.766 180.014C237.744 181.915 247.533 183.679 251.45 183.136C255.366 182.593 259.305 177.099 260.49 175.399C261.676 173.699 263.057 161.826 261.798 160.198C260.539 158.569 257.895 158.819 257.895 158.819L255.98 164.065Z" fill="#F28F8F"/>
<path d="M349.263 201.27L348.741 200.375L347.197 201.27L347.208 199.598H346.197L346.208 201.253L344.674 200.375L344.141 201.27L345.674 202.084L344.141 202.898L344.674 203.777L346.208 202.914L346.197 204.569H347.208L347.197 202.898L348.741 203.777L349.263 202.898L347.741 202.084L349.263 201.27Z" fill="#292929" stroke="black" stroke-width="0.01" stroke-linejoin="round"/>
<path d="M359.819 195.339L359.297 194.444L357.752 195.339L357.763 193.667H356.752L356.763 195.323L355.23 194.444L354.697 195.339L356.23 196.153L354.697 196.967L355.23 197.846L356.763 196.983L356.752 198.639H357.763L357.752 196.967L359.297 197.846L359.819 196.967L358.297 196.153L359.819 195.339Z" fill="#292929" stroke="black" stroke-width="0.01" stroke-linejoin="round"/>
<path d="M370.93 189.407L370.408 188.512L368.864 189.407L368.875 187.736H367.864L367.875 189.391L366.341 188.512L365.808 189.407L367.341 190.221L365.808 191.036L366.341 191.914L367.875 191.052L367.864 192.707H368.875L368.864 191.036L370.408 191.914L370.93 191.036L369.408 190.221L370.93 189.407Z" fill="#292929" stroke="black" stroke-width="0.01" stroke-linejoin="round"/>
<path d="M383.292 182.533L382.769 181.638L381.225 182.533L381.236 180.861H380.225L380.236 182.517L378.703 181.638L378.169 182.533L379.703 183.347L378.169 184.161L378.703 185.04L380.236 184.177L380.225 185.833H381.236L381.225 184.161L382.769 185.04L383.292 184.161L381.769 183.347L383.292 182.533Z" fill="#292929" stroke="black" stroke-width="0.01" stroke-linejoin="round"/>
<g opacity="0.098956">
<path d="M395.792 175.793L395.269 174.898L393.725 175.793L393.736 174.122H392.725L392.736 175.777L391.203 174.898L390.669 175.793L392.203 176.607L390.669 177.421L391.203 178.3L392.736 177.438L392.725 179.093H393.736L393.725 177.421L395.269 178.3L395.792 177.421L394.269 176.607L395.792 175.793Z" fill="#292929" stroke="black" stroke-width="0.01" stroke-linejoin="round"/>
</g>
</g>
<defs>
<filter id="filter0_d_1204_724" x="0" y="166.11" width="517.748" height="289.889" filterUnits="userSpaceOnUse" color-interpolation-filters="sRGB">
<feFlood flood-opacity="0" result="BackgroundImageFix"/>
<feColorMatrix in="SourceAlpha" type="matrix" values="0 0 0 0 0 0 0 0 0 0 0 0 0 0 0 0 0 0 127 0" result="hardAlpha"/>
<feOffset dx="4" dy="4"/>
<feGaussianBlur stdDeviation="5"/>
<feComposite in2="hardAlpha" operator="out"/>
<feColorMatrix type="matrix" values="0 0 0 0 0 0 0 0 0 0 0 0 0 0 0 0 0 0 0.25 0"/>
<feBlend mode="normal" in2="BackgroundImageFix" result="effect1_dropShadow_1204_724"/>
<feBlend mode="normal" in="SourceGraphic" in2="effect1_dropShadow_1204_724" result="shape"/>
</filter>
</defs>
</svg>
